<?xml version="1.0" standalone="no"?>
<!DOCTYPE svg PUBLIC "-//W3C//DTD SVG 1.1//EN" "http://www.w3.org/Graphics/SVG/1.1/DTD/svg11.dtd" >
<svg xmlns="http://www.w3.org/2000/svg" xmlns:xlink="http://www.w3.org/1999/xlink" version="1.1">
<metadata>
Created by FontForge 20160405 at Sat Oct 20 16:09:10 2018
 By www-data
2015 Iconian Fonts - www.iconian.com
</metadata>
<defs>
<font id="Xeno-Demon3DItalic" horiz-adv-x="868" >
  <font-face 
    font-family="Xeno-Demon 3D Italic"
    font-weight="400"
    font-style="italic"
    font-stretch="normal"
    units-per-em="1000"
    panose-1="0 0 0 0 0 0 0 0 0 0"
    ascent="800"
    descent="-200"
    x-height="597"
    cap-height="597"
    bbox="-7 -210 1659 816"
    underline-thickness="50"
    underline-position="-175"
    unicode-range="U+0020-2122"
  />
<missing-glyph horiz-adv-x="500" 
 />
    <glyph glyph-name=".notdef" horiz-adv-x="500" 
 />
    <glyph glyph-name=".null" horiz-adv-x="0" 
 />
    <glyph glyph-name="nonmarkingreturn" horiz-adv-x="500" 
 />
    <glyph glyph-name="space" unicode=" " horiz-adv-x="391" 
 />
    <glyph glyph-name="space" unicode="&#xa0;" horiz-adv-x="391" 
 />
    <glyph glyph-name="FL0021h" unicode="!" horiz-adv-x="284" 
d="M46 2h166l36 168h-166zM90 207h168l80 375h-168zM34 -13h-6l42 198h13l-5 7h-6l86 405h198l-1 -6l21 -27l-85 -399h-15l11 -12l-42 -193h-191z" />
    <glyph glyph-name="FL0022h" unicode="&#x22;" horiz-adv-x="500" 
d="M126 293h90l109 75l-10 -48h6l21 -27h90l120 84l39 185l-21 27l1 6h-198l-5 -24l-14 18l1 6h-198l-58 -275h6zM189 335h-72l52 245h168l-35 -167zM405 335h-72l52 245h168l-35 -167z" />
    <glyph glyph-name="FL0023h" unicode="#" horiz-adv-x="856" 
d="M552 310l-8 -37h-140l8 37h140zM677 104h131l36 169h-131l8 37h131l36 169h-131l22 103h-169l-22 -103h-140l22 103h-169l-22 -103h-131l-36 -169h131l-8 -37h-131l-36 -169h131l-22 -102h169l22 102h140l-22 -102h169zM802 494h104l-1 -6l21 -26l-41 -194h-13l10 -13
l-41 -193h-131l-22 -102h-193l-21 27h-6l16 75h-83l-22 -102h-193l-21 27h-6l16 75h-98l-21 27h-6l42 199h13l-5 7h-6l42 199h131l22 103h199l-1 -6l21 -27l-15 -70h83l22 103h199l-1 -6l21 -27z" />
    <glyph glyph-name="FL0024h" unicode="$" horiz-adv-x="869" 
d="M887 415l36 168h-292l25 116h-169l-25 -116h-86l-250 -205l-36 -169h517l-44 -39h-481l-36 -168h292l-24 -117h169l24 117h86l250 206l36 169h-517l44 38h481zM676 598h265l-1 -6l21 -27l-41 -192h-14l11 -14l-39 -187l-259 -212h-79l-24 -117h-193l-22 27h-6l19 90h-259
l-21 27h-6l42 198h15l-7 9h-6l41 191l259 213h78l25 116h199l-2 -6l22 -27z" />
    <glyph glyph-name="FL0025h" unicode="%" 
d="M679 0l1 2l5 -5l-2 -2zM419 518l-2 -2l-4 5l1 2zM619 15h10l7 6h-9zM353 536h10l7 6h-9zM380 584l24 -29l-1 -6l-36 -28h-46l-23 28l1 6l35 29h46zM646 63l24 -29l-1 -6l-36 -28h-45l-24 28l1 6l36 29h45zM720 176h-146l-136 -104l-17 -83l92 -103h146l137 103l17 83z
M529 510l18 83l-93 103h-146l-136 -103l-18 -83l93 -103h146zM333 377l-251 -206l-36 -169h169l23 105l124 101h263l261 206l36 169h-170l-22 -105l-124 -101h-273zM829 75l21 -27l-20 -95l-144 -109h-158l-24 27h-1l-99 111l21 97l113 87h-149l-117 -95l-24 -111h-193
l-21 27h-6l41 191l228 187h-35l-25 27h-1l-98 111l21 97l145 111h160l100 -111l-1 -4l21 -27l-20 -95l-110 -82h148l114 93l24 113h200l-1 -6l21 -27l-40 -187l-237 -187h48l99 -112z" />
    <glyph glyph-name="FL0026h" unicode="&#x26;" horiz-adv-x="911" 
d="M796 207h89l36 170h-485l-36 -170h162l28 -37h-272l44 37h1l36 170h-1l-28 37h471l36 168h-707l-36 -168l97 -123l-149 -121l-36 -168h744l36 168zM953 386l22 -28l-19 -16l-38 -177h-70l15 -18l-40 -187h-768l-21 27h-6l41 190l140 114l-91 116l40 190h737l-1 -6l21 -27
l-37 -172h82z" />
    <glyph glyph-name="FL0027h" unicode="'" horiz-adv-x="283" 
d="M301 413l35 167h-167l-52 -245h72zM353 589l21 -27l-39 -185l-119 -84h-91l-20 27h-6l58 275h197z" />
    <glyph glyph-name="FL0028h" unicode="(" horiz-adv-x="511" 
d="M439 498h108l36 169h-167l-272 -206l-72 -337l184 -207h167l36 170h-108l-95 114l39 183zM247 -98h-1l-190 215l74 351l282 214h189l-1 -6l21 -27l-41 -193h-115l-136 -108l-35 -166l67 -80h117l-2 -6l22 -27l-42 -194h-185z" />
    <glyph glyph-name="FL0029h" unicode=")" horiz-adv-x="511" 
d="M10 -98h6l21 -27h185l280 213l74 349l-21 27v4l-190 214h-189l-42 -199h6l21 -27h111l67 -79l-36 -170l-134 -105h-116zM260 498h-108l36 169h167l184 -206l-72 -337l-272 -207h-167l36 170h108l145 114l39 183z" />
    <glyph glyph-name="FL002Ah" unicode="*" horiz-adv-x="490" 
d="M297 649h-128l-24 -113l37 -46l-57 -47l-24 -112h6l22 -27h122l3 16l13 -16h121l3 16l13 -16h123l23 109l-22 26l1 4l-16 19l57 45l23 109l-21 27l1 6h-128l-3 -16l-8 10l1 6h-128l-3 -16l-8 10zM267 580l32 -39l20 93h98l-20 -92l48 38l12 54h98l-20 -91l-66 -53l44 -54
l-19 -90h-98l11 54l-32 38l-19 -92h-98l19 93l-48 -39l-11 -54h-98l19 90l66 54l-44 53l20 91h98z" />
    <glyph glyph-name="FL002Bh" unicode="+" horiz-adv-x="581" 
d="M407 207h148l36 170h-148l32 148h-170l-32 -148h-147l-36 -170h147l-31 -147h170zM493 540l-1 -6l20 -27l-25 -116h122l-1 -5l21 -27l-41 -194h-149l-31 -147h-193l-21 27h-6l25 120h-114l-21 27h-6l42 199h147l32 149h200z" />
    <glyph glyph-name="FL002Ch" unicode="," horiz-adv-x="283" 
d="M214 3l35 167h-167l-52 -246h73zM266 179l21 -27l-39 -186l-118 -83h-92l-20 27h-6l58 275h197z" />
    <glyph glyph-name="FL002Dh" unicode="-" horiz-adv-x="493" 
d="M90 206h377l36 169h-377zM520 384l21 -27l-41 -192h-401l-21 26h-6l42 199h407z" />
    <glyph glyph-name="FL002Eh" unicode="." horiz-adv-x="283" 
d="M28 -13h6l20 -27h192l41 192l-21 26l1 6h-197zM82 169h167l-36 -167h-167z" />
    <glyph glyph-name="FL002Fh" unicode="/" 
d="M606 377h-273l-251 -207l-36 -168h169l23 105l124 100h263l261 207l36 168h-170l-22 -104zM329 392h273l114 92l24 113h200l-1 -6l21 -27l-40 -186l-269 -213h-262l-117 -94l-24 -111h-193l-21 27h-6l41 190z" />
    <glyph glyph-name="FL00AEh" unicode="0" 
d="M312 264l67 -78h165l133 106l-66 79h-163zM599 413l95 -114l-3 -14l-144 -114h-178l-95 114l3 14l144 114h178zM694 582h-296l-272 -206l-36 -168l184 -206h296l272 206l36 168zM894 379l21 -27l-38 -180l-280 -212h-308l-24 27h-1l-190 214l38 182l282 214h310l190 -214
v-4z" />
    <glyph glyph-name="FL0031h" unicode="1" horiz-adv-x="358" 
d="M116 399h6l21 -27h40l-82 -385h6l21 -27h193l129 604l-21 27l1 6h-272zM207 414h-73l36 168h242l-124 -580h-169z" />
    <glyph glyph-name="FL003Ch" unicode="2" horiz-adv-x="870" 
d="M362 208h482l36 170l-162 204h-547l-36 -167h481l28 -37h-311l-251 -208l-36 -168h754l36 168h-518zM123 400h-6l42 197h569l169 -212l-1 -4l21 -27l-40 -188h-14l12 -13l-42 -193h-778l-21 27h-6l41 190l236 196h-161z" />
    <glyph glyph-name="FL0033h" unicode="3" horiz-adv-x="869" 
d="M278 192h6l5 -7h-219l-42 -198h6l21 -27h777l40 187l-21 26l1 4l-70 87l139 114l40 186l-21 27l1 6h-783l-42 -198h6l21 -27h173zM607 377l44 37h-517l36 168h753l-36 -168l-149 -122l97 -122l-36 -168h-753l36 168h517l-28 37h-275l36 170h275z" />
    <glyph glyph-name="FL0034h" unicode="4" 
d="M356 597h-198l-86 -405h6l21 -27h484l52 -63l-25 -115h6l21 -27h194l129 604l-21 27l1 6h-200l-47 -222l-13 17h-341l37 172l-21 27zM294 377h376l30 -38l52 243h170l-124 -580h-170l23 107l-79 98h-482l80 375h168z" />
    <glyph glyph-name="FL0035h" unicode="5" horiz-adv-x="870" 
d="M28 -13h6l21 -27h778l40 187l-21 26l1 4l-155 195h223l41 192l-21 27l1 6h-784l-86 -405h6l5 -7h-13zM572 207h-482l80 375h754l-36 -168h-585l-8 -37h378l163 -207l-36 -168h-754l36 168h518z" />
    <glyph glyph-name="FL0036h" unicode="6" horiz-adv-x="869" 
d="M599 170h-350l8 37h314zM126 376l-80 -374h753l36 168l-162 206h-307l45 37h476l36 169h-540zM698 371l154 -194l-1 -4l21 -26l-40 -187h-777l-21 27h-6l84 396l267 214h562l-1 -6l21 -27l-41 -193h-222z" />
    <glyph glyph-name="FL0037h" unicode="7" horiz-adv-x="869" 
d="M887 414l36 168h-753l-36 -168h517l-44 -37h-275l-80 -375h170l44 206h171zM316 372h-173l-21 27h-6l42 198h783l-1 -6l21 -27l-40 -186l-258 -212h-164l-44 -206h-194l-21 27h-6z" />
    <glyph glyph-name="FL0038h" unicode="8" horiz-adv-x="870" 
d="M363 207l36 170h-1l-28 37h282l-44 -37h-172l-36 -170h172l28 -37h-282l44 37h1zM888 414l36 168h-754l-36 -168l97 -123l-149 -121l-36 -168h754l36 168l-98 121zM158 597h784l-1 -6l21 -27l-40 -186l-140 -115l71 -86l-1 -4l21 -26l-40 -187h-778l-21 27h-6l41 190
l140 114l-91 116z" />
    <glyph glyph-name="FL0039h" unicode="9" horiz-adv-x="869" 
d="M370 414h349l-8 -37h-313zM923 582h-753l-36 -168l162 -206h307l-45 -37h-476l-36 -169h540l257 206zM941 597l-1 -6l21 -27l-83 -392l-266 -212h-557l-21 27h-6l43 199h225l-6 7h-4l-168 214l40 190h783z" />
    <glyph glyph-name="FL003Ah" unicode=":" horiz-adv-x="283" 
d="M98 243h167l35 168h-167zM46 2h167l36 168h-167zM34 -13h-6l42 198h197l-1 -6l21 -27l-41 -192h-192zM85 228h-6l43 198h197l-2 -6l22 -27l-41 -192h-192z" />
    <glyph glyph-name="FL003Bh" unicode=";" horiz-adv-x="283" 
d="M38 -118h92l118 84l39 186l-21 27l1 6h-197l-58 -276h6zM122 426l-43 -198h6l21 -27h192l41 193l-22 26l2 6h-197zM103 -76h-73l52 246h167l-35 -167zM133 411h167l-35 -168h-167z" />
    <glyph glyph-name="FL004Dh" unicode="&#x3c;" horiz-adv-x="1122" 
d="M905 107l-23 -105h170l36 168l-97 122l149 122l36 168h-373l-157 -125l-103 125h-373l-36 -168l97 -122l-149 -122l-36 -168h170l23 105l123 100l36 170l-27 36h72l86 -110l-64 -301h168l64 301l134 110h71l-42 -36l-36 -170zM453 -13h-6l66 309l-59 75h-33l14 -18
l-39 -182l-123 -100l-24 -111h-194l-21 27h-6l41 190l140 115l-91 115l40 190h395l98 -119l148 119h395l-1 -6l21 -27l-40 -186l-139 -114l70 -87l-1 -4l21 -26l-40 -187h-194l-21 27h-6l24 113l-80 100l33 157l-109 -90l-66 -307h-192z" />
    <glyph glyph-name="FL003Dh" unicode="=" horiz-adv-x="602" 
d="M112 310h486l36 169h-486zM68 104h486l36 169h-486zM136 494h516l-1 -6l21 -27l-41 -193h-13l10 -13l-41 -193h-510l-21 27h-6l42 199h13l-5 7h-6z" />
    <glyph glyph-name="FL003Eh" unicode="&#x3e;" horiz-adv-x="1122" 
d="M847 384l-39 -184l10 -14h-28l-60 75l65 303l-21 27l1 6h-198l-66 -309l-109 -90l33 155l-21 27l1 4l-60 74l23 106l-21 27l1 6h-200l-40 -190l91 -115l-140 -115l-41 -190h6l21 -27h391l148 118l75 -91h3l22 -27h391l40 187l-21 26l1 4l-70 87l139 114l40 186l-21 27
l1 6h-200l-24 -113zM984 478l22 104h170l-36 -168l-149 -122l97 -122l-36 -168h-373l-103 126l-157 -126h-373l36 168l149 122l-97 122l36 168h170l-22 -104l80 -101l-36 -170l-43 -36h72l134 110l64 301h168l-64 -301l86 -110h71l-26 36l36 170z" />
    <glyph glyph-name="FL003Fh" unicode="?" horiz-adv-x="869" 
d="M170 2h167l36 168h-167zM717 582h-547l-36 -167h481l28 -37h-392l-36 -169h628l36 169zM727 597l169 -212l-1 -4l21 -27l-40 -187h-477l13 -14l-42 -193h-191l-21 27h-6l42 198h16l-7 9h-6l38 179h-92l-21 27h-6l42 197h569z" />
    <glyph glyph-name="FL0040h" unicode="@" horiz-adv-x="954" 
d="M530 276h32l1 6h-25zM511 324h46l24 -29l-8 -34h-76l-24 28l2 6zM296 384l143 114h264l93 -113l-20 -93h-81l13 59l-77 86h-147l-136 -104l-18 -83l92 -102h493l67 313l-184 206h-382l-272 -206l-72 -337l184 -207h551l36 170h-492l-94 114zM723 354l21 -27l-5 -20h25
l15 71l-64 78h-249l-137 -108l-35 -166l67 -80h501l-2 -6l22 -27l-42 -194h-569l-24 27h-1l-190 215l74 351l282 214h396l190 -214v-4l21 -27l-70 -331h-511l-25 27h-1l-98 110l20 97l146 112h161l83 -94z" />
    <glyph glyph-name="FL005Eh" unicode="A" 
d="M112 383l-84 -396h6l21 -27h191l44 205h360l-38 -178h6l21 -27h192l129 604l-21 27l1 6h-561zM383 582h539l-124 -580h-168l88 412h-307l-46 -38h308l-36 -169h-380l-44 -205h-167l80 374z" />
    <glyph glyph-name="FL0042h" unicode="B" horiz-adv-x="869" 
d="M158 597l-130 -610h6l21 -27h777l40 187l-21 26l1 4l-70 87l139 114l40 186l-21 27l1 6h-783zM738 292l97 -122l-36 -168h-753l124 580h753l-36 -168zM607 377l44 37h-348l-52 -244h348l-28 37h-275l36 170h275z" />
    <glyph glyph-name="FL0043h" unicode="C" horiz-adv-x="840" 
d="M825 186h-455l-60 75l24 111h557l41 192l-21 27l1 6h-754l-84 -396l175 -214h3l22 -27h529l42 194l-22 26zM90 208l80 374h724l-36 -168h-557l-28 -133l86 -110h447l-36 -169h-511z" />
    <glyph glyph-name="FL0044h" unicode="D" horiz-adv-x="869" 
d="M695 372h-359l-39 -186h258l122 102zM288 171l-36 -169h334l257 206l80 374h-753l-124 -580h169l88 412h416l-28 -133l-133 -110h-270zM34 -13h-6l130 610h783l-1 -6l21 -27l-83 -392l-266 -212h-351l-10 13l-3 -13h-193z" />
    <glyph glyph-name="FL0045h" unicode="E" horiz-adv-x="869" 
d="M362 207h275l36 170h-275l-28 37h517l36 168h-753l-36 -168l97 -122l-149 -122l-36 -168h753l36 168h-517zM34 -13h-6l41 190l140 115l-91 115l40 190h783l-1 -6l21 -27l-41 -192h-220l10 -13l-37 -174h180l-1 -6l22 -26l-42 -193h-777z" />
    <glyph glyph-name="FL0046h" unicode="F" horiz-adv-x="869" 
d="M55 -40h193l24 111l117 94h280l41 194l-10 13h220l41 192l-21 27l1 6h-783l-40 -190l91 -115l-140 -115l-41 -190h6zM362 207l-124 -100l-23 -105h-169l36 168l149 122l-97 122l36 168h753l-36 -168h-517l28 -37h275l-36 -170h-275z" />
    <glyph glyph-name="FL0047h" unicode="G" horiz-adv-x="869" 
d="M294 185h70l-5 7h-6l28 132l-69 -57zM126 376l-80 -374h753l36 168l-162 206h-266l-36 -169h200l28 -37h-350l28 133l134 110h476l36 169h-540zM34 -13h-6l84 396l267 214h562l-1 -6l21 -27l-41 -193h-222l154 -194l-1 -4l21 -26l-40 -187h-777z" />
    <glyph glyph-name="FL0048h" unicode="H" 
d="M629 2h169l124 580h-169l-44 -205h-375l-47 -38l52 243h-169l-124 -580h169l23 107l122 98h313zM34 -13h-6l130 610h199l-1 -6l21 -27l-37 -172h357l44 205h199l-1 -6l21 -27l-129 -604h-193l-21 27h-6l38 178h-262l-114 -92l-25 -113h-193z" />
    <glyph glyph-name="FL0049h" unicode="I" horiz-adv-x="392" 
d="M366 208l80 374h-167l-64 -301l-133 -110l-36 -169h64zM34 -13h-6l41 191l132 110l66 309h197l-1 -6l21 -27l-83 -392l-264 -212h-82z" />
    <glyph glyph-name="FL004Ah" unicode="J" horiz-adv-x="869" 
d="M82 171l-36 -169h540l257 206l80 374h-521l-36 -168h353l-28 -133l-133 -110h-476zM71 186h484l122 102l18 84h-320l-21 27h-6l42 198h551l-1 -6l21 -27l-83 -392l-266 -212h-557l-21 27h-6z" />
    <glyph glyph-name="FL004Bh" unicode="K" horiz-adv-x="867" 
d="M627 2h170l36 168l-97 122l149 122l36 168h-170l-22 -104l-124 -101h-271l-47 -38l52 243h-169l-124 -580h169l23 107l122 98h209l81 -100zM633 100l-53 65h-193l-114 -92l-25 -113h-193l-21 27h-6l130 610h199l-1 -6l21 -27l-37 -172h261l114 92l24 113h200l-1 -6
l21 -27l-40 -186l-139 -114l70 -87l-1 -4l21 -26l-40 -187h-194l-21 27h-6z" />
    <glyph glyph-name="FL004Ch" unicode="L" horiz-adv-x="699" 
d="M362 207l36 170l-81 101l22 104h-169l-36 -168l96 -122l-148 -122l-36 -168h583l36 168h-347zM414 380l21 -27l-36 -168h284l-1 -6l22 -26l-42 -193h-607l-21 27h-6l41 190l140 115l-91 115l40 190h199l-1 -6l21 -27l-23 -106l61 -74z" />
    <glyph glyph-name="FL004Eh" unicode="M" horiz-adv-x="1122" 
d="M882 2h170l124 580h-373l-157 -125l-103 125h-373l-124 -580h170l88 411h139l86 -110l-64 -301h168l64 301l134 110h139zM34 -13h-6l130 610h395l98 -119l148 119h395l-1 -6l21 -27l-129 -604h-194l-21 27h-6l82 384h-88l-126 -104l-66 -307h-192l-21 27h-6l66 309
l-59 75h-117l-88 -411h-194z" />
    <glyph glyph-name="FL00ABh" unicode="N" 
d="M348 597h-190l-130 -610h6l21 -27h192l80 374l313 -208l-30 -139h6l21 -27h194l129 604l-21 27l1 6h-200l-49 -230zM700 340l52 242h170l-124 -580h-170l31 143l-363 241l-82 -384h-168l124 580h168z" />
    <glyph glyph-name="o" unicode="O" horiz-adv-x="870" 
d="M158 597l-40 -190l91 -115l-140 -115l-41 -190h6l21 -27h778l40 187l-21 26l1 4l-70 87l139 114l40 186l-21 27l1 6h-784zM739 292l97 -122l-36 -168h-754l36 168l149 122l-97 122l36 168h754l-36 -168zM600 170l-28 37l36 170l44 37h-282l28 -37l-36 -170l-44 -37h282z
M435 353l-15 19h172l-36 -172l10 -15h-167z" />
    <glyph glyph-name="FL0050h" unicode="P" horiz-adv-x="869" 
d="M727 597h-569l-130 -610h6l21 -27h193l47 220l10 -13h571l40 187l-21 27l1 4zM879 378l-36 -169h-547l36 169h311l-28 37h-312l-88 -413h-169l124 580h547z" />
    <glyph glyph-name="FL0051h" unicode="Q" horiz-adv-x="870" 
d="M312 264l67 -77h270l-2 -6l6 -7l26 122l-58 75h-173zM421 413h190l84 -110l-91 -430h169l107 503l-169 206h-313l-272 -206l-36 -168l184 -206h321l37 170h-262l-96 113l3 14zM265 -13h-1l-190 214l38 182l282 214h327l175 -214v-4l21 -27l-111 -521h-193l-21 27h-6
l21 102h-318z" />
    <glyph glyph-name="FL0FF6h" unicode="R" horiz-adv-x="869" 
d="M921 378l40 186l-21 27l1 6h-783l-130 -610h6l21 -27h193l47 218l10 -13h277l55 -70l-23 -108h6l21 -27h191l40 187l-21 26l1 4l-70 87zM607 377l44 37h-348l-88 -412h-169l124 580h753l-36 -168l-149 -122l97 -122l-36 -168h-167l22 100l-83 105h-275l36 170h275z" />
    <glyph glyph-name="FL0060h" unicode="S" horiz-adv-x="870" 
d="M28 -13h6l21 -27h778l40 187l-21 26l1 4l-155 196h222l41 191l-21 27l1 6h-569l-259 -212l-41 -192h6l6 -8h-14zM572 208h-482l36 170l250 204h547l-36 -167h-481l-44 -37h311l163 -208l-36 -168h-754l36 168h518z" />
    <glyph glyph-name="FL0054h" unicode="T" horiz-adv-x="870" 
d="M707 289h196l59 275l-21 27l1 6h-784l-42 -198h6l21 -27h138l-36 -171l175 -214h3l22 -27h217l42 194l-22 26l2 6h-143l-60 75l24 111h187l-12 -56h6zM472 414l-28 -133l86 -110h135l-36 -169h-199l-170 206l44 206h-170l36 168h754l-54 -251h-172l18 83h-244z" />
    <glyph glyph-name="FL0055h" unicode="U" 
d="M259 2h539l124 580h-168l-88 -411h-307l-86 110l64 301h-167l-80 -374zM939 591l21 -27l-129 -604h-557l-22 27h-3l-175 214l84 396h197l-1 -6l21 -27l-65 -303l60 -75h285l87 411h198z" />
    <glyph glyph-name="FL0056h" unicode="V" 
d="M754 582l-64 -298l-175 -113h-114l-128 113l64 298h-167l-80 -374l227 -206h210l315 206l80 374h-168zM939 591l21 -27l-84 -393l-323 -211h-220l-233 211l-12 16l-14 13l84 397h197l-1 -6l21 -27l-62 -292l97 -86h103l164 106l65 305h198z" />
    <glyph glyph-name="FL0057h" unicode="W" horiz-adv-x="1116" 
d="M1002 582l-63 -297l-144 -114h-9l-95 114l63 297h-168l-63 -297l-145 -114h-9l-94 114l63 297h-168l-80 -374l184 -206h127l173 131l117 -131h126l273 206l80 374h-168zM1187 591l21 -27l-83 -392l-281 -212h-138l-24 27h-1l-88 97l-165 -124h-139l-24 27h-1l-190 214
l84 396h198l-1 -6l21 -27l-63 -298l64 -78l132 104l65 305h198l-1 -6l21 -27l-63 -298l65 -78l131 104l65 305h198z" />
    <glyph glyph-name="FL005Bh" unicode="X" 
d="M339 582h-169l-36 -168l97 -122l-149 -122l-36 -168h169l23 105l124 100h208l81 -100l-23 -105h170l36 168l-97 122l149 122l36 168h-170l-22 -104l-124 -101h-208l-81 101zM356 591l21 -27l-23 -106l54 -66h194l114 92l24 113h200l-1 -6l21 -27l-40 -186l-139 -114
l70 -87l-1 -4l21 -26l-40 -187h-194l-21 27h-6l24 113l-53 65h-192l-117 -94l-24 -111h-193l-21 27h-6l41 190l140 115l-91 115l40 190h199z" />
    <glyph glyph-name="FL0059h" unicode="Y" horiz-adv-x="866" 
d="M293 192h3l5 -6h-230l-43 -199h6l21 -27h554l265 211l84 393l-21 27l1 6h-198l-44 -205h-283l-59 75l21 97l-21 27l1 6h-197l-40 -190zM134 414l36 168h167l-21 -96l87 -109h305l44 205h168l-80 -375l-257 -205h-537l36 169h473l44 36h-296z" />
    <glyph glyph-name="FL005Ah" unicode="Z" horiz-adv-x="870" 
d="M608 376h-482l-36 -170l162 -204h547l36 167h-481l-28 37h311l251 208l36 168h-754l-36 -168h518zM114 391h14l-6 8h-6l42 198h784l-1 -6l21 -27l-40 -186l-235 -194h166l-1 -6l21 -26l-41 -192h-565l-22 27h-3l-169 212z" />
    <glyph glyph-name="FL005Dh" unicode="[" horiz-adv-x="480" 
d="M516 498l36 169h-364l-160 -750h364l36 170h-197l88 411h197zM16 -98h-6l166 780h394l-1 -6l21 -27l-41 -193h-197l-75 -354h170l-2 -6l22 -27l-42 -194h-388z" />
    <glyph glyph-name="FL005Ch" unicode="\" 
d="M357 597h-199l-40 -190l179 -215h2l23 -27h259l53 -65l-24 -113h6l21 -27h194l40 187l-21 26l1 4l-170 215h-273l-54 66l23 106l-21 27zM398 377h273l163 -207l-36 -168h-170l23 105l-81 100h-263l-173 207l36 168h169l-22 -104z" />
    <glyph glyph-name="FL005Fh" unicode="]" horiz-adv-x="480" 
d="M10 -98h6l21 -27h388l165 774l-21 27l1 6h-394l-42 -199h6l21 -27h164l-75 -354h-197zM261 87l88 411h-197l36 169h364l-160 -750h-364l36 170h197z" />
    <glyph glyph-name="a" unicode="^" horiz-adv-x="870" 
d="M55 -40h191l23 105l127 106l2 7l10 -13h174l55 -71l-23 -107h6l21 -27h192l40 187l-21 26l1 4l-70 87l139 114l40 186l-21 27l1 6h-784l-40 -190l91 -115l-140 -115l-41 -190h6zM398 377l-36 -170l-128 -106l-21 -99h-167l36 168l149 122l-97 122l36 168h754l-36 -168
l-149 -122l97 -122l-36 -168h-168l21 99l-81 106h-173l36 170h173l44 37h-282z" />
    <glyph glyph-name="FL0062h" unicode="_" horiz-adv-x="696" 
d="M57 121l-39 -181h6l22 -27h604l37 175l-22 27l2 6h-610zM69 106h580l-33 -152h-580z" />
    <glyph glyph-name="FL0064h" unicode="`" horiz-adv-x="350" 
d="M240 567h5l21 -27h176l-37 192l-19 23v-1l-1 10h-200zM205 749h166l32 -167h-151z" />
    <glyph glyph-name="FL0061h" unicode="a" 
d="M719 597h-340l-267 -214l-84 -396h6l21 -27h191l32 147l12 -16h344l-22 -104h6l21 -27h192l84 392l-21 27v4zM878 376l-80 -374h-168l28 131h-377l36 168h379l-87 112h-198l-134 -110l-64 -301h-167l80 374l257 206h326zM438 371h182l43 -55h-292z" />
    <glyph glyph-name="b" unicode="b" horiz-adv-x="869" 
d="M599 170h-348l52 244h348l-44 -37h-275l-36 -170h275zM923 582h-753l-124 -580h753l36 168l-97 122l149 122zM782 264l70 -87l-1 -4l21 -26l-40 -187h-777l-21 27h-6l130 610h783l-1 -6l21 -27l-40 -186z" />
    <glyph glyph-name="FL0063h" unicode="c" horiz-adv-x="840" 
d="M411 413h447l36 169h-511l-257 -206l-80 -374h724l36 168h-557l28 133zM911 591l21 -27l-41 -193h-453l-126 -104l-18 -82h530l-1 -6l22 -26l-42 -193h-748l-21 27h-6l84 396l267 214h533z" />
    <glyph glyph-name="d" unicode="d" horiz-adv-x="869" 
d="M695 372h-359l-39 -186h258l122 102zM288 171l-36 -169h334l257 206l80 374h-753l-124 -580h169l88 412h416l-28 -133l-133 -110h-270zM34 -13h-6l130 610h783l-1 -6l21 -27l-83 -392l-266 -212h-351l-10 13l-3 -13h-193z" />
    <glyph glyph-name="e" unicode="e" horiz-adv-x="869" 
d="M362 207h275l36 170h-275l-28 37h517l36 168h-753l-36 -168l97 -122l-149 -122l-36 -168h753l36 168h-517zM34 -13h-6l41 190l140 115l-91 115l40 190h783l-1 -6l21 -27l-41 -192h-220l10 -13l-37 -174h180l-1 -6l22 -26l-42 -193h-777z" />
    <glyph glyph-name="FL0066h" unicode="f" horiz-adv-x="840" 
d="M55 -40h193l24 111l117 94h251l41 194l-10 13h220l41 192l-21 27l1 6h-754l-40 -190l91 -115l-140 -115l-41 -190h6zM362 207l-124 -100l-23 -105h-169l36 168l149 122l-97 122l36 168h724l-36 -168h-488l28 -37h246l-36 -170h-246z" />
    <glyph glyph-name="FL0067h" unicode="g" horiz-adv-x="869" 
d="M294 185h70l-5 7h-6l28 132l-69 -57zM126 376l-80 -374h753l36 168l-162 206h-266l-36 -169h200l28 -37h-350l28 133l134 110h476l36 169h-540zM34 -13h-6l84 396l267 214h562l-1 -6l21 -27l-41 -193h-222l154 -194l-1 -4l21 -26l-40 -187h-777z" />
    <glyph glyph-name="FL006Eh" unicode="h" 
d="M629 2h169l124 580h-169l-44 -205h-375l-47 -38l52 243h-169l-124 -580h169l23 107l122 98h313zM34 -13h-6l130 610h199l-1 -6l21 -27l-37 -172h357l44 205h199l-1 -6l21 -27l-129 -604h-193l-21 27h-6l38 178h-262l-114 -92l-25 -113h-193z" />
    <glyph glyph-name="i" unicode="i" horiz-adv-x="284" 
d="M46 2h168l124 580h-168zM34 -13h-6l130 610h198l-1 -6l21 -27l-129 -604h-193z" />
    <glyph glyph-name="FL006Ah" unicode="j" horiz-adv-x="698" 
d="M28 -13h6l21 -27h387l265 212l83 392l-21 27l1 6h-197l-66 -309l-123 -102h-313zM387 171l134 110l64 301h167l-80 -374l-257 -206h-369l36 169h305z" />
    <glyph glyph-name="FL006Bh" unicode="k" horiz-adv-x="867" 
d="M627 2h170l36 168l-97 122l149 122l36 168h-170l-22 -104l-124 -101h-271l-47 -38l52 243h-169l-124 -580h169l23 107l122 98h209l81 -100zM633 100l-53 65h-193l-114 -92l-25 -113h-193l-21 27h-6l130 610h199l-1 -6l21 -27l-37 -172h261l114 92l24 113h200l-1 -6
l21 -27l-40 -186l-139 -114l70 -87l-1 -4l21 -26l-40 -187h-194l-21 27h-6z" />
    <glyph glyph-name="FL006Ch" unicode="l" horiz-adv-x="698" 
d="M375 564l-21 27l1 6h-197l-84 -396l175 -214h3l22 -27h387l42 194l-22 26l2 6h-313l-60 75zM90 208l80 374h167l-64 -301l86 -110h305l-36 -169h-369z" />
    <glyph glyph-name="FL006Dh" unicode="m" horiz-adv-x="1118" 
d="M968 597h-810l-130 -610h6l21 -27h192l88 411h191l-82 -384h6l21 -27h194l88 411h117l58 -75l-66 -309h6l21 -27h192l84 392l-21 27v4zM1128 376l-80 -374h-168l64 301l-85 110h-139l-88 -411h-170l88 411h-248l-88 -411h-168l124 580h788z" />
    <glyph glyph-name="FL0072h" unicode="n" 
d="M709 582h-539l-124 -580h167l88 411h308l85 -110l-64 -301h168l80 374zM158 597h561l175 -214v-4l21 -27l-84 -392h-192l-21 27h-6l66 309l-58 75h-286l-88 -411h-191l-21 27h-6z" />
    <glyph glyph-name="FL006Fh" unicode="o" horiz-adv-x="870" 
d="M312 267l-18 -82h362l24 111l-58 75h-184zM696 303l-28 -133h-419l28 133l134 110h200zM126 376l-80 -374h754l80 374l-169 206h-328zM896 379l21 -27l-84 -392h-778l-21 27h-6l84 396l267 214h342l175 -214v-4z" />
    <glyph glyph-name="p" unicode="p" horiz-adv-x="869" 
d="M887 414l36 168h-753l-124 -580h169l88 412h348l-44 -37h-275l-36 -169h341zM34 -13h-6l130 610h783l-1 -6l21 -27l-40 -186l-258 -212h-358l-10 13l-47 -219h-193z" />
    <glyph glyph-name="FL0073h" unicode="q" horiz-adv-x="870" 
d="M312 267l-17 -81h354l-2 -6l6 -7l26 123l-58 75h-183zM126 376l-80 -374h549l36 169h-382l28 132l134 110h200l84 -110l-91 -430h169l107 503l-169 206h-328zM34 -13h-6l84 396l267 214h342l175 -214v-4l21 -27l-111 -521h-193l-21 27h-6l21 102h-552z" />
    <glyph glyph-name="r" unicode="r" horiz-adv-x="869" 
d="M921 378l40 186l-21 27l1 6h-783l-130 -610h6l21 -27h193l47 218l10 -13h277l55 -70l-23 -108h6l21 -27h191l40 187l-21 26l1 4l-70 87zM607 377l44 37h-348l-88 -412h-169l124 580h753l-36 -168l-149 -122l97 -122l-36 -168h-167l22 100l-83 105h-275l36 170h275z" />
    <glyph glyph-name="s" unicode="s" horiz-adv-x="870" 
d="M55 -40h778l40 187l-21 26l1 4l-158 195h226l41 192l-21 27l1 6h-784l-40 -190l169 -215h4l5 -7h-226l-42 -198h6zM398 377h272l166 -207l-36 -168h-754l36 168h518l-28 37h-275l-163 207l36 168h754l-36 -168h-518z" />
    <glyph glyph-name="FL007Bh" unicode="t" horiz-adv-x="870" 
d="M921 372l41 192l-21 27l1 6h-784l-42 -198h6l21 -27h138l-36 -171l175 -214h3l22 -27h217l42 194l-22 26l2 6h-143l-60 75l24 111h416zM629 2h-199l-170 206l44 206h-170l36 168h754l-36 -168h-416l-28 -133l86 -110h135z" />
    <glyph glyph-name="FL0075h" unicode="u" 
d="M259 2h539l124 580h-168l-88 -411h-307l-86 110l64 301h-167l-80 -374zM939 591l21 -27l-129 -604h-557l-22 27h-3l-175 214l84 396h197l-1 -6l21 -27l-65 -303l60 -75h285l87 411h198z" />
    <glyph glyph-name="FL007Ch" unicode="v" 
d="M754 582l-64 -298l-175 -113h-114l-128 113l64 298h-167l-80 -374l229 -206h206l317 206l80 374h-168zM939 591l21 -27l-84 -393l-325 -211h-216l-235 211l-13 16l-13 13l84 397h197l-1 -6l21 -27l-62 -292l97 -86h103l164 106l65 305h198z" />
    <glyph glyph-name="FL0077h" unicode="w" horiz-adv-x="1118" 
d="M1172 582h-168l-88 -411h-248l88 411h-170l-88 -411h-139l-85 110l64 301h-168l-80 -374l170 -206h788zM714 186h191l87 411h198l-1 -6l21 -27l-129 -604h-807l-21 27h-3l-176 214l84 396h198l-1 -6l21 -27l-65 -303l59 -75h117l87 411h200l-1 -6l21 -27z" />
    <glyph glyph-name="FL0078h" unicode="x" 
d="M339 582h-169l-36 -168l97 -122l-149 -122l-36 -168h169l23 105l124 100h208l81 -100l-23 -105h170l36 168l-97 122l149 122l36 168h-170l-22 -104l-124 -101h-208l-81 101zM356 591l21 -27l-23 -106l54 -66h194l114 92l24 113h200l-1 -6l21 -27l-40 -186l-139 -114
l70 -87l-1 -4l21 -26l-40 -187h-194l-21 27h-6l24 113l-53 65h-192l-117 -94l-24 -111h-193l-21 27h-6l41 190l140 115l-91 115l40 190h199z" />
    <glyph glyph-name="FL0079h" unicode="y" 
d="M357 597h-199l-40 -190l172 -215h3l22 -27h43l-38 -178h6l21 -27h194l44 205h73l262 213l40 186l-21 27l1 6h-200l-24 -113l-114 -92h-194l-54 66l23 106l-21 27zM606 377l124 101l22 104h170l-36 -168l-254 -207h-80l-44 -205h-170l44 205h-82l-166 207l36 168h169
l-22 -104l81 -101h208z" />
    <glyph glyph-name="z" unicode="z" horiz-adv-x="870" 
d="M608 377h-272l-254 -207l-36 -168h754l36 168h-518l44 37h275l251 207l36 168h-754l-36 -168h518zM307 372h-164l-21 27h-6l42 198h784l-1 -6l21 -27l-40 -186l-235 -193h167l-1 -6l22 -26l-42 -193h-778l-21 27h-6l41 190z" />
    <glyph glyph-name="FL007Eh" unicode="{" horiz-adv-x="593" 
d="M126 377l-36 -170h205l82 -100l-23 -105h169l36 168l-97 122l149 122l36 168h-169l-22 -104l-125 -101h-205zM506 264l70 -87l-1 -4l21 -26l-40 -187h-193l-21 27h-6l24 113l-54 65h-207l-21 27h-6l42 200h213l115 92l24 113h199l-1 -6l21 -27l-40 -186z" />
    <glyph glyph-name="FL0080h" unicode="|" horiz-adv-x="283" 
d="M17 -135h167l182 854h-167zM187 734h197l-1 -6l21 -27l-187 -878h-192l-20 27h-6z" />
    <glyph glyph-name="FL007Dh" unicode="}" horiz-adv-x="593" 
d="M339 582h-169l-36 -168l96 -122l-148 -122l-36 -168h169l23 105l124 100h205l36 170h-205l-81 101zM356 591l21 -27l-23 -106l54 -66h213l-1 -6l21 -27l-41 -194h-211l-117 -94l-24 -111h-193l-21 27h-6l41 190l139 115l-90 115l40 190h199z" />
    <glyph glyph-name="FL0070h" unicode="~" horiz-adv-x="870" 
d="M362 207l36 170l-27 36h240l85 -110l-64 -301h168l80 374l-169 206h-541l-36 -168l97 -122l-149 -122l-36 -168h169l23 105zM620 -13h-6l66 309l-58 75h-201l14 -18l-39 -182l-124 -100l-24 -111h-193l-21 27h-6l41 190l140 115l-91 115l40 190h563l175 -214v-4l21 -27
l-84 -392h-192z" />
    <glyph glyph-name="FL007Fh" horiz-adv-x="220" 
 />
    <glyph glyph-name="FL00A1h" unicode="&#xa1;" horiz-adv-x="284" 
d="M158 597l-42 -198h6l5 -7h-13l-86 -405h6l20 -27h193l85 399l-10 13h11l41 192l-21 27l1 6h-196zM126 377h168l-80 -375h-168zM170 582h166l-36 -168h-166z" />
    <glyph glyph-name="FL00A2h" unicode="&#xa2;" horiz-adv-x="869" 
d="M312 267l-17 -81h140l39 185h-36zM411 413h87l-52 -242h-197l28 132zM667 413h220l36 170h-220l25 116h-169l-25 -116h-151l-257 -207l-80 -374h364l-24 -117h169l24 117h220l36 169h-220zM940 592l21 -27l-41 -194h-221l-39 -185h194l-2 -6l22 -27l-42 -193h-221
l-24 -117h-192l-22 27h-6l19 90h-331l-21 27h-6l84 396l267 215h143l25 116h199l-2 -6l21 -27l-18 -83h194z" />
    <glyph glyph-name="FL00A3h" unicode="&#xa3;" horiz-adv-x="927" 
d="M126 377l-36 -170h185l-43 -37h-150l-36 -168h811l36 168h-425l43 37h201l36 170h-201l-28 37h87l36 168h-323l-36 -168l28 -37h-185zM114 392h164l-11 15l40 190h353l-1 -6l21 -27l-37 -172h123l-1 -6l21 -27l-37 -174h162l-1 -6l22 -26l-42 -193h-835l-21 27h-6l42 198
h13l-5 7h-6z" />
    <glyph glyph-name="FL00A5h" unicode="&#xa4;" 
d="M487 277h10l7 6h-9zM514 325l24 -29l-1 -6l-36 -28h-46l-24 28l1 6l36 29h46zM339 582h-169l-36 -168l97 -122l-149 -122l-36 -168h169l23 105l103 83l39 -41h147l55 41l69 -83l-23 -105h170l36 168l-97 122l149 122l36 168h-170l-22 -104l-103 -84l-39 44h-147l-57 -44
l-67 84zM356 591l21 -27l-23 -106l34 -43l49 38h161l32 -38l86 69l24 113h200l-1 -6l21 -27l-40 -186l-139 -114l70 -87l-1 -4l21 -26l-40 -187h-194l-21 27h-6l24 113l-34 42l-46 -35h-159l-26 27l-8 9l-89 -72l-24 -111h-193l-21 27h-6l41 190l140 115l-91 115l40 190h199
z" />
    <glyph glyph-name="FL00A9h" unicode="&#xa5;" 
d="M181 10l-30 -140h159l-8 -39h170l8 39h157l30 140h-157l7 30h157l29 140h-157l6 27h80l254 207l36 169h-170l-22 -105l-124 -101h-208l-81 101l22 105h-169l-36 -169l166 -207h82l-6 -27h-159l-29 -140h159l-7 -30h-159zM169 25h9l-1 -2l-2 2h-6l36 170h83l-170 212
l40 191h199l-1 -6l21 -27l-23 -107l54 -66h194l114 93l24 113h200l-1 -6l21 -27l-40 -187l-227 -183h28l-1 -6l21 -27l-34 -164h-6l4 -6l-35 -164h-157l-8 -38h-194l-21 26h-6l2 12h-126l-21 27h-6z" />
    <glyph glyph-name="FL00A7h" unicode="&#xa6;" horiz-adv-x="283" 
d="M112 312h167l87 407h-167zM17 -135h167l87 408h-167zM384 734l-1 -6l21 -27l-92 -431h-15l12 -15l-92 -432h-192l-20 27h-6l93 438h15l-7 9h-6l93 437h197z" />
    <glyph glyph-name="FL0053h" unicode="&#xa7;" horiz-adv-x="869" 
d="M55 -40h564l258 211l40 188l-11 14h14l41 191l-21 27l1 6h-569l-259 -212l-41 -192h6l7 -9h-15l-42 -197h6zM563 169l44 39h-517l36 170l250 204h547l-36 -167h-481l-44 -38h517l-36 -170l-250 -205h-547l36 167h481z" />
    <glyph glyph-name="FL00A8h" unicode="&#xa8;" horiz-adv-x="519" 
d="M404 581h168l36 167h-168zM169 581h168l36 167h-168zM392 566h-6l42 197h198l-1 -6l21 -27l-40 -191h-192zM157 566h-6l42 197h198l-1 -6l21 -27l-40 -191h-192z" />
    <glyph glyph-name="FL00AAh" unicode="&#xa9;" horiz-adv-x="362" 
d="M303 629q-36 0 -71 -17q-22 -11 -37 -24t-28 -30t-20 -31.5t-12 -35.5q-8 -41 4 -69q8 -18 15.5 -28.5t21.5 -21.5l5 -5q5 -6 10 -11t11 -10q32 -19 67 -19q1 0 18 2.5t54 16.5q3 3 5 4q15 11 26.5 19t24.5 25h2q26 33 33 67q8 38 -6 67q-2 8 -5.5 15t-7.5 13l-8 11
q-9 22 -37 43h1q-14 11 -30.5 15t-35.5 4zM300 614q31 0 54 -16q34 -20 38 -48q11 -27 4 -59q-6 -30 -31 -61q-10 -15 -22 -23.5t-29 -19.5q-1 -1 -2 -1.5t-2 -1.5h1q-31 -11 -47 -13t-17 -2q-32 0 -59 15h1q-12 11 -20 20.5t-15 26.5q-12 25 -4 60q4 18 11 31.5t18 29.5v-1
q12 15 25.5 27t30.5 20q33 16 65 16zM300 596h-8q-19 0 -39 -8.5t-37 -23t-29.5 -32.5t-16.5 -37l-1 -4q-4 -22 4 -56q6 -14 26 -33q26 -9 37.5 -12t14.5 -3q24 0 54 14q25 12 48 39q9 13 15.5 25.5t8.5 25.5l1 4q4 19 -0.5 37t-16 32.5t-27.5 23t-34 8.5zM258 421
q-29 0 -42.5 18.5t-6.5 51.5q8 34 29 51.5t51 17.5q42 0 47 -37l-20 -4q-6 24 -31 24q-44 0 -56 -52q-11 -51 33 -51q34 0 47 31l17 -6q-21 -44 -68 -44zM303 490q-15 -35 -38 -35h-1l1 6q8 38 38 41q-1 -1 1 -1l5 1l14 -19zM355 543q3 -8 5.5 -14t3.5 -13q-2 2 -2.5 4
t-2.5 4l-13 15l-1 -1q-2 5 -4 13q4 -2 7.5 -4t7.5 -4h-1zM345 472l3 3l-6 2l17 3q-4 -9 -9 -17l-6 7q1 1 1 2zM208 415q-2 2 -2.5 5t-2.5 5q6 -6 16 -11h-1l2 -4q-4 1 -12 5z" />
    <glyph glyph-name="FL00ACh" unicode="&#xaa;" 
d="M894 383l-175 214h-340l-267 -214l-84 -396h6l21 -27h191l66 307l63 52l-27 -127h6l21 -27h275l-38 -178h6l21 -27h192l84 392l-21 27v4zM674 207h-308l36 169h237l-30 38h-198l-134 -111l-64 -301h-167l80 374l257 206h326l169 -206l-80 -374h-168z" />
    <glyph glyph-name="FL00B0h" unicode="&#xab;" horiz-adv-x="501" 
d="M284 261l15 -19l9 42l-35 -13l13 -5zM299 168l151 -79l35 166l-78 36l93 34l35 166l-185 -80zM82 168l151 -79l35 166l-78 36l93 34l35 166l-185 -80zM501 261l22 -27l-41 -193l-174 91l-17 22h1l-3 1l-24 -114l-174 91l-18 22h1l-9 6l55 261l218 94l-1 -8l21 -27
l-12 -56l209 91l-1 -8l21 -27l-41 -193l-44 -16l13 -5z" />
    <glyph glyph-name="FL00ADh" unicode="&#xac;" horiz-adv-x="581" 
d="M355 60h169l67 316h-465l-36 -169h296zM114 391h495l-1 -6l21 -27l-72 -340h-193l-21 27h-6l25 120h-263l-21 27h-6z" />
    <glyph glyph-name="FL00AFh" unicode="&#xad;" horiz-adv-x="425" 
d="M90 206h309l36 169h-309zM452 384l21 -27l-41 -192h-333l-21 26h-6l42 199h339z" />
    <glyph glyph-name="FL00B6h" unicode="&#xae;" horiz-adv-x="362" 
d="M303 629q-17 0 -34.5 -4t-37.5 -14q-21 -10 -36 -22.5t-26 -26.5q-15 -22 -22 -37t-12 -34q-7 -34 1 -62q20 -43 41 -57l6 -7q3 -4 6 -7l6 -6q2 -2 3.5 -3t2.5 -2l3 -2h-1q27 -18 66 -18q1 0 19.5 2t47.5 16q19 10 34.5 22t26.5 27h2q26 33 33 67q7 35 -5 67q-2 8 -6 15
t-8 13l-5 5l-4 6l-1 -1q-8 23 -27 38h1q-35 25 -74 25zM300 614q31 0 54 -16q16 -8 25 -20.5t14 -28.5q10 -24 3 -58q-6 -30 -31 -61q-8 -14 -22.5 -25.5t-31.5 -19.5q-29 -12 -46 -14t-18 -2q-31 0 -58 16q-21 16 -35 46q-10 28 -4 60q4 18 11 31.5t19 30.5l-1 -1
q12 15 25 26.5t31 19.5q33 16 65 16zM300 596h-8q-19 0 -39 -8t-37 -21.5t-29.5 -32t-16.5 -38.5l-1 -5q1 -6 1.5 -10t0.5 -9q0 -4 0.5 -11.5t0.5 -20.5q3 -12 10 -21t17 -17q27 -9 38.5 -11.5t13.5 -2.5q28 0 60 16q21 13 41 34q6 13 10 20.5t6 13t4 9.5l5 10l1 4
q4 19 -0.5 37t-16 32.5t-27.5 23t-34 8.5zM278 555q25 0 31 -4q7 -2 15 -12q5 -12 4 -19q-3 -14 -16 -24t-30 -11v-2q5 -3 8 -7t7 -12q2 -3 3.5 -6.5t3.5 -8.5l11 -24h-25l-6 19q-6 14 -10 22t-7 10q-3 5 -16 5h-14l-12 -56h-19l28 130h44zM266 496q21 0 29.5 5.5t10.5 17.5
q3 14 -9 18h1q-2 2 -23 2h-25l-10 -43h26zM358 518l-17 20v-1q0 5 -2 9q-2 1 -2 2v1l-4 3q6 -1 11.5 -3.5t10.5 -5.5h-1q13 -23 9 -47q0 -1 -1 -1v0q1 6 -0.5 11.5t-3.5 11.5zM270 437l9 -27h3l3 -3q-12 -4 -22 -4zM347 461l-5 -11q-2 -2 -2 -3t-2 -3l-3 -3l-4 -4v1v4l-3 4
h-1v1q6 3 10.5 6.5t9.5 7.5z" />
    <glyph glyph-name="FL00B3h" unicode="&#xaf;" horiz-adv-x="696" 
d="M147 474h580l32 152h-580zM167 641h610l-1 -6l21 -27l-37 -175h-604l-21 27h-6z" />
    <glyph glyph-name="FL00B1h" unicode="&#xb0;" horiz-adv-x="283" 
d="M193 763l-42 -197h6l21 -27h192l40 191l-21 27l1 6h-197zM205 748h167l-36 -167h-167zM295 635l13 59h-60l-13 -59h60zM281 652h3l-1 -2h-3z" />
    <glyph glyph-name="FL00B2h" unicode="&#xb1;" horiz-adv-x="581" 
d="M46 2h465l36 169h-465zM428 305h148l36 170h-148l23 107h-170l-23 -107h-147l-36 -170h147l-21 -98h170zM505 597l-1 -6l20 -27l-16 -75h122l-1 -6l21 -26l-41 -194h-149l-16 -77h122l-2 -6l22 -26l-42 -194h-489l-21 27h-6l43 199h159l-5 6h-6l15 71h-114l-21 27h-6
l42 199h147l23 108h200z" />
    <glyph glyph-name="FL00BDh" unicode="&#xb2;" horiz-adv-x="491" 
d="M292 443h223l19 88l-81 102h-272l-19 -86h223l18 -12h-140l-126 -107l-18 -83h375l19 86h-243zM550 534l21 -27l-44 -204h-399l-21 27h-6l22 104l83 71h-35l-21 27h-6l25 116h293l88 -110v-4z" />
    <glyph glyph-name="FL0032h" unicode="&#xb3;" horiz-adv-x="870" 
d="M362 207h482l80 375h-754l-36 -168h584l-8 -37h-377l-251 -207l-36 -168h754l36 168h-518zM122 399h-6l42 198h784l-1 -6l21 -27l-85 -399h-13l11 -12l-42 -193h-778l-21 27h-6l41 190l236 195h-162z" />
    <glyph glyph-name="FL00B4h" unicode="&#xb4;" horiz-adv-x="350" 
d="M174 540h175l134 191l-22 26l4 7h-200l-120 -197h8zM272 749h166l-117 -167h-151z" />
    <glyph glyph-name="FL00B5h" unicode="&#xb5;" 
d="M250 172l87 410h-167l-153 -717h168l29 137h315l313 206l80 374h-168l-63 -296l-173 -114h-268zM158 597h197l-1 -6l21 -26l-80 -378h220l162 107l65 303h198l-1 -6l21 -26l-83 -393l-322 -212h-308l-29 -137h-192l-21 27h-6z" />
    <glyph glyph-name="FL0052h" unicode="&#xb6;" horiz-adv-x="863" 
d="M537 209l58 -207h197l-66 208h112l35 166l-156 206h-547l-124 -580h169l88 413h312l28 -37h-311l-36 -169h241zM34 -13h-6l130 610h569l162 -214v-3l21 -28l-39 -184h-104l67 -208h-226l-20 27h-4l-54 180h-225l-10 13l-47 -220h-193z" />
    <glyph glyph-name="FL00B7h" unicode="&#xb7;" horiz-adv-x="283" 
d="M90 207h167l36 168h-167zM78 192h-6l42 198h197l-1 -6l21 -27l-41 -191h-192z" />
    <glyph glyph-name="FL00B8h" unicode="&#xb8;" horiz-adv-x="352" 
d="M11 -165h64l205 165h-234zM-1 -179h-6l41 194h287l-7 -6l22 -28l-234 -187h-82z" />
    <glyph glyph-name="FL00B9h" unicode="&#xb9;" horiz-adv-x="286" 
d="M156 346h134l61 288h-170l-24 -112h36zM368 643l21 -27l-66 -312h-158l-22 27h-6l32 149h-4l-20 27h-6l30 142h200z" />
    <glyph glyph-name="FL00BAh" unicode="&#xba;" horiz-adv-x="490" 
d="M340 474h10l7 6h-9zM367 522l24 -29l-1 -6l-36 -28h-46l-24 28l1 6l36 29h46zM515 448l18 83l-92 103h-147l-135 -103l-18 -83l92 -102h147zM549 534l21 -27l-20 -94l-144 -109h-158l-25 27h-1l-97 110l20 97l145 111h161l98 -111v-4z" />
    <glyph glyph-name="FL00BBh" unicode="&#xbb;" horiz-adv-x="501" 
d="M45 66l5 2l23 -27l202 85l-13 -60l5 2l23 -27l211 90l55 258l-22 27l1 5l-178 94l-25 -118l-15 19l1 5l-178 94l-42 -200l8 -4h-1l19 -23l9 -5l-45 -17zM193 291l-78 34l35 166l151 -80l-51 -243l-185 -79l35 166zM410 291l-78 34l35 166l151 -80l-51 -243l-185 -79
l35 166zM341 288l9 -5l-37 -15l9 43zM323 311h-1h1z" />
    <glyph glyph-name="FL00BCh" unicode="&#xbc;" horiz-adv-x="870" 
d="M608 377l-36 -170l27 -36h-240l-86 110l64 301h-167l-80 -374l169 -206h541l36 168l-97 122l149 122l36 168h-170l-22 -104zM595 384l123 100l24 113h200l-1 -6l21 -27l-40 -186l-139 -114l70 -87l-1 -4l21 -26l-40 -187h-559l-22 27h-3l-175 214l84 396h197l-1 -6
l21 -27l-65 -303l60 -75h196l-10 14z" />
    <glyph glyph-name="FL00BEh" unicode="&#xbd;" 
d="M285 407h134l61 289h-171l-24 -112h37zM571 -15h223l19 88l-83 103h-272l-18 -87h223l17 -12h-139l-127 -108l-17 -83h376l18 87h-243zM333 377l-251 -206l-36 -169h169l23 105l124 101h263l261 206l36 169h-170l-22 -105l-124 -101h-273zM828 76l21 -27l-43 -205h-400
l-21 27h-6l22 105l83 71h-35l-21 27h-6l19 92h-52l-117 -95l-24 -111h-193l-21 27h-6l41 191l228 187h-4l-21 27h-6l32 150h-4l-21 27h-6l30 142h201l-1 -6l21 -27l-61 -286h145l114 93l24 113h200l-1 -6l21 -27l-40 -187l-237 -187h58l88 -111z" />
    <glyph glyph-name="mu" unicode="&#xbe;" horiz-adv-x="1190" 
d="M257 194l-16 -6l26 -5zM415 289q-4 -3 -14 -11h1q-7 -6 -11.5 -10.5t-6.5 -9.5q5 2 12 4.5t12 4.5l-1 -4q2 7 4 13t4 13zM988 211l21 17l-16 6l-16 -10zM1080 312l49 3l-43 23l3 -4zM780 294l36 45l8 -45h-44zM1113 225q-5 11 -14.5 27.5t-26.5 38.5l-20 -56zM997 269
l20 -2l32 87l-28 6zM261 229l28 9l32 116l-20 -3zM675 235l32 8l31 116l-24 -5zM520 298q-2 -12 -5.5 -19.5t-11.5 -17.5q-18 -5 -23 -6.5l-15 -4.5q-21 0 -14 31l1 8q25 39 47 39q15 0 23 -15q-1 -3 -1 -8t-1 -7zM209 256l38 -20l34 103l-78 8l-1 -13v1l50 -76zM417 333
q1 0 5 -2l9 27q-96 -14 -108 -69l-1 -8q-2 -5 0 -7q1 -54 37 -54q4 0 6.5 0.5t6.5 1.5q2 1 5.5 2t8.5 2l3 17q-5 -1 -11 -1.5t-15 -0.5q-27 0 -21 25q6 29 28 51q25 17 40 17q6 0 7 -1zM893 299q34 -63 63 -63l25 118l-19 6l-22 -87l-57 79l-25 -117l21 2zM581 292
q37 -61 66 -61l25 118l-17 5l-24 -84l-59 77l-25 -118l22 4zM793 269q17 0 26 -28l15 -4l19 88q-6 38 -28 38q-15 0 -19 -5q-28 -29 -47 -58.5t-31 -58.5h26q24 28 39 28zM548 316q-2 38 -44 38h-15q-53 -28 -70 -107q6 -18 40 -18h7q4 0 9 1q2 0 3 0.5t3 0.5q37 0 67 85z
M631 82l5 -9l137 58l53 -40l91 82l80 -27l6 22l-19 22l-1 -1l-5 5q-31 4 -55 39l-2 2l-8 -39l-46 -4l-34 8l-21 26h-2q-4 -2 -10.5 -8.5t-17.5 -18.5h-47l-2 3l-52 -12v1l-1 -2q-38 0 -69 40l-1 1l-8 -38l-47 -7l-16 20q-17 -16 -37 -16q-1 0 -1.5 -0.5t-1.5 -0.5h-1
q-5 -1 -9 -1h-9q-30 0 -45 15l-11 13l-5 -30q-15 -2 -20 -3t-7 -2q0 -1 -2 -1h-1q-2 -1 -3 -1h-6q-24 0 -36 15l-13 17q-1 1 -2 1t-2 1l-1 1l-3 -13l-56 -17l76 -17l-8 -4l22 -26l-7 -4l114 -4l-4 -7l22 -27l127 21l17 -26zM1049 370l-1 1h1l-16 9l38 9l-83 19l-20 25h1
l-13 4l11 7h-100l-21 26h-7l4 11l-145 -18l-22 27h-4v9l-125 -50l-48 37l-89 -73q-9 -5 -26 -5q-27 0 -59 22l-23 -64l39 5l-2 -6l14 -18q32 19 98 28l-3 -6l13 -16q10 7 26 16h20q36 0 50 -22l8 37l61 -79l19 68l45 -12l-1 -5l7 -10l7 21l56 12l-3 -7l21 -26q3 4 6 6.5
t6 6.5q3 3 7 7.5l4 4.5q9 7 28 7q25 0 36 -30l2 -3l10 45l58 -81l19 70l46 -13l-1 -5l6 -8l6 25zM1090 298q47 -64 44 -82q-2 0 -2.5 -1t-2.5 -7l-95 15l-27 -96l-89 28l-93 -84l-59 42l-164 -68l14 27l-17 27l-193 -31l32 46l-205 8l69 37l-172 39l91 34l-111 60v2l94 6
l-38 59l3 31l92 -8l36 97q38 -29 67 -29q11 0 19 4l95 79l50 -42l147 61l15 -5l-2 -41l198 26l-24 -47h201l-69 -41l161 -34l8 -16h-12l-76 -19l107 -55l3 -15zM1209 317q1 16 -86 51l1 2q54 6 62 37l1 7l-141 38l1 2q26 0 35 35l-13 15h-174l16 41l-51 5l-155 -27l-3 8
l8 19l-22 22l-148 -61l-59 39q-20 -8 -43 -26t-60 -54l-77 26h-5q-33 0 -54 -96l-85 8l-12 -38l32 -52l-86 -13l1 -32l76 -35l-55 -35q-4 -25 16 -25l117 -21l-28 -25l-5 -22l188 -16l-16 -34l19 -12l192 26l-9 -40l21 -7l156 67l37 -40l38 7h-1l86 73l9 -2q19 -11 32.5 -17
t31.5 -6q21 0 29 14l27 82l71 -16q22 7 27 29l1 5l-1 9v-1l-32 55h67l22 30zM1221 377q-4 -20 -20 -31q17 -12 22 -26v1l13 -18l3 -2q7 -8 5 -20l-4 -3v1l-26 -35h-49l21 -34l2 -17l-1 -5q-6 -28 -42 -40l-61 12l-23 -71q-10 -22 -43 -22q-20 0 -34.5 5.5t-34.5 17.5
l-83 -71l-50 -8l-25 27l-12 11l-149 -64l-34 11l-20 25h1l-7 3v1l-147 -19l-31 19l-16 20l-11 7l2 4l-144 13l-22 26h1l-7 1l7 30l-54 11q-14 0 -19 8l-17 19h1q-22 7 -13 47l22 15l-20 10l-19 23h1l-8 4l-2 54l75 11l-21 36l18 60l84 -8q26 95 70 95h9l67 -24q35 34 61 52
t52 28l57 -39l150 63l31 -34l-1 -4l8 -11l127 23l71 -6l-2 -6l21 -27l-4 -7h132l19 -23v-4l21 -27q-2 -5 -3 -8.5t-3 -7.5l92 -23l-2 -5l22 -27z" />
    <glyph glyph-name="FL00BFh" unicode="&#xbf;" horiz-adv-x="869" 
d="M596 414h167l36 168h-167zM835 169h-481l-28 37h392l36 169h-628l-36 -169l162 -204h547zM817 597l-1 -6l21 -27l-41 -192h-16l12 -15l-37 -173h98l-1 -6l21 -26l-41 -192h-565l-22 27h-3l-169 212l41 191h477l-7 9h-6l42 198h197z" />
    <glyph glyph-name="FL00C0h" unicode="&#xc0;" 
d="M508 633h152l-33 168h-167zM126 376l-80 -374h167l44 206h380l36 168h-308l46 38h307l-88 -412h168l124 581h-539zM112 383l267 215h137l-16 20h-5l-55 198h201l1 -10l1 1l19 -23l35 -186h243l-1 -6l21 -27l-129 -605h-192l-21 27h-6l38 179h-360l-44 -206h-191l-21 27
h-6z" />
    <glyph glyph-name="FL00C1h" unicode="&#xc1;" 
d="M455 633h152l118 168h-167zM126 376l-80 -374h167l44 206h380l36 168h-308l46 38h307l-88 -412h168l124 581h-539zM752 816l-4 -7l22 -26l-131 -185h301l-1 -6l21 -27l-129 -605h-192l-21 27h-6l38 179h-360l-44 -206h-191l-21 27h-6l84 396l267 215h74l-16 20h-8
l122 198h201z" />
    <glyph glyph-name="FL00C2h" unicode="&#xc2;" 
d="M576 631l-20 -33h44l-16 20h-5zM577 718l16 -85h166l-44 168h-244l-115 -168h167zM126 376l-80 -374h167l44 206h380l36 168h-308l46 38h307l-88 -412h168l124 581h-539zM112 383l259 208h-12l-22 27h-7l135 198h263l2 -11v1l19 -22l47 -186h144l-1 -6l21 -27l-129 -605
h-192l-21 27h-6l38 179h-360l-44 -206h-191l-21 27h-6z" />
    <glyph glyph-name="FL00C3h" unicode="&#xc3;" 
d="M513 632l-20 -34h45l-16 20h-4zM511 714l19 -81h212l115 168h-166l-51 -82l-19 82h-213l-114 -168h166zM126 376l-80 -374h167l44 206h380l36 168h-308l46 38h307l-88 -412h168l124 581h-539zM112 383l259 208h-74l-22 27h-8l135 198h232l2 -10l1 1l18 -23l2 -13l28 45
h199l-4 -7l22 -26l-128 -185h166l-1 -6l21 -27l-129 -605h-192l-21 27h-6l38 179h-360l-44 -206h-191l-21 27h-6z" />
    <glyph glyph-name="FL00C4h" unicode="&#xc4;" 
d="M592 633h168l35 168h-168zM356 633h169l35 168h-169zM126 376l-80 -374h167l44 206h380l36 168h-308l46 38h307l-88 -412h168l124 581h-539zM112 383l259 208h-6l-22 27h-6l42 198h199l-1 -6l21 -27l-39 -185h36l-16 20h-6l42 198h198l-1 -6l21 -27l-39 -185h146l-1 -6
l21 -27l-129 -605h-192l-21 27h-6l38 179h-360l-44 -206h-191l-21 27h-6z" />
    <glyph glyph-name="FL00C5h" unicode="&#xc5;" 
d="M495 816l-42 -198h6l16 -20h-96l-267 -215l-84 -396h6l21 -27h191l44 206h360l-38 -179h6l21 -27h192l129 605l-21 27l1 6h-265l39 185l-21 27l1 6h-199zM718 414h-307l-46 -38h308l-36 -168h-380l-44 -206h-167l80 374l257 207h539l-124 -581h-168zM507 801h169
l-35 -168h-169zM598 687l13 59h-60l-13 -59h60zM584 704h3l-1 -2h-3z" />
    <glyph glyph-name="FL00C6h" unicode="&#xc6;" horiz-adv-x="1567" 
d="M904 295l-2 -6l4 3zM847 225l28 133l53 -66zM126 376l-80 -374h168l44 205h379l36 169h-307l46 38h307l-88 -412h866l36 168h-517l44 37h274l36 170h-274l-28 37h517l36 168h-1237zM112 383l268 214h1259l-1 -6l21 -27l-41 -192h-220l10 -13l-37 -174h180l-1 -6l22 -26
l-42 -193h-890l-21 27h-6l38 178h-360l-44 -205h-192l-21 27h-6z" />
    <glyph glyph-name="FL00C7h" unicode="&#xc7;" horiz-adv-x="869" 
d="M349 -166h65l207 168h178l37 170h-476l-87 109l28 133h586l36 169h-753l-80 -375l169 -206h125zM334 372l-24 -111l60 -74h484l-2 -6l22 -27l-42 -194h-184l-207 -167h-83l-21 26h-6l29 141h-86l-22 27h-3l-175 214l84 397h783l-1 -6l21 -27l-41 -193h-586z" />
    <glyph glyph-name="FL00C8h" unicode="&#xc8;" horiz-adv-x="869" 
d="M508 633h152l-33 168h-167zM362 208h275l36 169h-275l-28 37h517l36 169h-753l-36 -169l97 -122l-149 -121l-36 -169h753l36 169h-517zM34 -13h-6l41 191l140 114l-91 115l40 191h358l-16 20h-5l-55 198h201l1 -10l1 1l19 -23l35 -186h244l-1 -6l21 -27l-41 -193h-220
l10 -13l-36 -173h180l-2 -6l22 -27l-42 -193h-777z" />
    <glyph glyph-name="FL00C9h" unicode="&#xc9;" horiz-adv-x="869" 
d="M455 633h152l118 168h-167zM362 208h275l36 169h-275l-28 37h517l36 169h-753l-36 -169l97 -122l-149 -121l-36 -169h753l36 169h-517zM752 816l-4 -7l22 -26l-131 -185h302l-1 -6l21 -27l-41 -193h-220l10 -13l-36 -173h180l-2 -6l22 -27l-42 -193h-777l-21 27h-6
l41 191l140 114l-91 115l40 191h295l-16 20h-8l122 198h201z" />
    <glyph glyph-name="FL00CAh" unicode="&#xca;" horiz-adv-x="869" 
d="M576 631l-20 -33h44l-16 20h-5zM577 718l16 -85h166l-44 168h-244l-115 -168h167zM362 208h275l36 169h-275l-28 37h517l36 169h-753l-36 -169l97 -122l-149 -121l-36 -169h753l36 169h-517zM34 -13h-6l41 191l140 114l-91 115l40 191h195l-16 20h-7l135 198h263l2 -11v1
l19 -22l47 -186h145l-1 -6l21 -27l-41 -193h-220l10 -13l-36 -173h180l-2 -6l22 -27l-42 -193h-777z" />
    <glyph glyph-name="FL00CBh" unicode="&#xcb;" horiz-adv-x="869" 
d="M592 633h168l35 168h-168zM356 633h169l35 168h-169zM362 208h275l36 169h-275l-28 37h517l36 169h-753l-36 -169l97 -122l-149 -121l-36 -169h753l36 169h-517zM34 -13h-6l41 191l140 114l-91 115l40 191h201l-16 20h-6l42 198h199l-1 -6l21 -27l-39 -185h36l-16 20h-6
l42 198h198l-1 -6l21 -27l-39 -185h147l-1 -6l21 -27l-41 -193h-220l10 -13l-36 -173h180l-2 -6l22 -27l-42 -193h-777z" />
    <glyph glyph-name="FL00CCh" unicode="&#xcc;" horiz-adv-x="392" 
d="M284 633h151l-32 168h-166zM366 209l80 374h-167l-64 -302l-132 -109l-37 -170h64zM34 -13h-6l41 192l132 109l66 310h25l-16 20h-5l-54 198h200l1 -10l1 1l18 -23l37 -193h-10l20 -26l-83 -392l-264 -213h-82z" />
    <glyph glyph-name="FL00CDh" unicode="&#xcd;" horiz-adv-x="392" 
d="M202 633h151l117 168h-166zM366 209l80 374h-167l-64 -302l-132 -109l-37 -170h64zM497 816l-4 -7l22 -26l-131 -185h80l-1 -6l21 -27l-83 -392l-264 -213h-82l-21 27h-6l41 192l132 109l65 303h-60l-22 27h-8l121 198h200z" />
    <glyph glyph-name="FL00CEh" unicode="&#xce;" horiz-adv-x="392" 
d="M337 631l-20 -33h44l-16 20h-5zM338 718l16 -85h166l-44 168h-243l-114 -168h165zM367 209l80 374h-168l-64 -302l-132 -109l-37 -170h65zM99 618h-8l136 198h262l2 -11v1l19 -22l50 -193h-95l19 -26l-83 -392l-264 -213h-82l-21 27h-6l41 192l132 109l65 303h-145z" />
    <glyph glyph-name="FL00CFh" unicode="&#xcf;" horiz-adv-x="392" 
d="M353 633h168l35 168h-168zM118 633h168l35 168h-168zM367 209l80 374h-168l-64 -302l-132 -109l-37 -170h65zM320 598h36l-16 20h-6l42 198h198l-1 -6l21 -27l-40 -192h-89l19 -26l-83 -392l-264 -213h-82l-21 27h-6l41 192l132 109l65 303h-139l-22 27h-6l42 198h198
l-1 -6l21 -27z" />
    <glyph glyph-name="FL00D0h" unicode="&#xd0;" horiz-adv-x="970" 
d="M506 186h150l122 102l18 84h-264l10 -13zM360 207h108l36 170h-108l8 37h416l-28 -133l-133 -110h-270l-36 -169h333l258 206l80 374h-753l-44 -205h-101l-36 -170h101l-44 -205h169zM78 192h-6l42 200h101l44 205h783l-1 -6l21 -27l-83 -392l-266 -212h-351l-10 13
l-3 -13h-193l-21 27h-6l38 178h-68z" />
    <glyph glyph-name="FL00D1h" unicode="&#xd1;" 
d="M358 591l333 -224l48 224h-195l-22 27h-4l-5 14l-23 -41h-132zM511 714l19 -81h212l115 168h-166l-51 -82l-19 82h-213l-114 -168h166zM338 583h-168l-124 -581h168l82 384l363 -241l-31 -143h170l124 581h-170l-52 -243zM884 816l-4 -7l22 -26l-128 -185h166l-1 -6
l21 -27l-129 -605h-194l-21 27h-6l30 139l-313 208l-80 -374h-192l-21 27h-6l130 611h133l-16 20h-8l135 198h232l2 -10l1 1l18 -23l2 -13l28 45h199z" />
    <glyph glyph-name="FL00D2h" unicode="&#xd2;" horiz-adv-x="870" 
d="M508 633h152l-33 168h-167zM400 186h167l-11 15l36 171h-172l15 -19zM318 171l44 37l36 169l-28 37h282l-44 -37l-36 -169l28 -37h-282zM924 583h-754l-36 -169l97 -122l-149 -121l-36 -169h754l36 169l-97 121l149 122zM516 598l-16 20h-5l-55 198h201l1 -10l1 1l19 -23
l35 -186h245l-1 -6l21 -27l-40 -187l-139 -114l70 -86l-1 -4l21 -27l-40 -187h-778l-21 27h-6l41 191l140 114l-91 115l40 191h358z" />
    <glyph glyph-name="FL00D3h" unicode="&#xd3;" horiz-adv-x="870" 
d="M455 633h152l118 168h-167zM400 186h167l-11 15l36 171h-172l15 -19zM362 208l36 169l-28 37h282l-44 -37l-36 -169l28 -37h-282zM231 292l-149 -121l-36 -169h754l36 169l-97 121l149 122l36 169h-754l-36 -169zM752 816l-4 -7l22 -26l-131 -185h303l-1 -6l21 -27
l-40 -187l-139 -114l70 -86l-1 -4l21 -27l-40 -187h-778l-21 27h-6l41 191l140 114l-91 115l40 191h295l-16 20h-8l122 198h201z" />
    <glyph glyph-name="FL00D4h" unicode="&#xd4;" horiz-adv-x="870" 
d="M576 631l-20 -33h44l-16 20h-5zM400 186h167l-11 15l36 171h-172l15 -19zM577 718l16 -85h166l-44 168h-244l-115 -168h167zM370 414h282l-44 -37l-36 -169l28 -37h-282l44 37l36 169zM231 292l-149 -121l-36 -169h754l36 169l-97 121l149 122l36 169h-754l-36 -169z
M69 178l140 114l-91 115l40 191h195l-16 20h-7l135 198h263l2 -11v1l19 -22l47 -186h146l-1 -6l21 -27l-40 -187l-139 -114l70 -86l-1 -4l21 -27l-40 -187h-778l-21 27h-6z" />
    <glyph glyph-name="FL00D5h" unicode="&#xd5;" horiz-adv-x="870" 
d="M513 632l-20 -34h45l-16 20h-4zM400 186h167l-11 15l36 171h-172l15 -19zM370 414h282l-44 -37l-36 -169l28 -37h-282l44 37l36 169zM511 714l19 -81h213l114 168h-166l-51 -82l-19 82h-213l-114 -168h166zM231 292l-149 -121l-36 -169h754l36 169l-97 121l149 122
l36 169h-754l-36 -169zM884 816l-4 -7l22 -26l-128 -185h168l-1 -6l21 -27l-40 -187l-139 -114l70 -86l-1 -4l21 -27l-40 -187h-778l-21 27h-6l41 191l140 114l-91 115l40 191h133l-16 20h-8l135 198h232l2 -10l1 1l18 -23l2 -13l28 45h199z" />
    <glyph glyph-name="FL00F6h" unicode="&#xd6;" horiz-adv-x="870" 
d="M592 633h168l35 168h-168zM356 633h169l35 168h-169zM400 186h167l-11 15l36 171h-172l15 -19zM370 414h282l-44 -37l-36 -169l28 -37h-282l44 37l36 169zM231 292l-149 -121l-36 -169h754l36 169l-97 121l149 122l36 169h-754l-36 -169zM69 178l140 114l-91 115l40 191
h201l-16 20h-6l42 198h199l-1 -6l21 -27l-39 -185h36l-16 20h-6l42 198h198l-1 -6l21 -27l-39 -185h148l-1 -6l21 -27l-40 -187l-139 -114l70 -86l-1 -4l21 -27l-40 -187h-778l-21 27h-6z" />
    <glyph glyph-name="FL00D7h" unicode="&#xd7;" horiz-adv-x="566" 
d="M276 516l-145 -120l82 -104l-125 -105l93 -118l127 103l83 -103l143 118l-82 105l127 104l-93 120l-128 -105zM280 538l83 -105l127 105l111 -142l-2 -2l22 -27l-125 -103l60 -77l-3 -2l22 -28l-166 -136l-21 28l-2 -2l-61 76l-125 -102l-22 28l-2 -2l-110 140l125 105
l-82 104z" />
    <glyph glyph-name="FL00D8h" unicode="&#xd8;" 
d="M593 207l-46 -36h-178l-20 25l13 11h231zM606 377h-231l46 36h178l20 -25zM842 208l36 168l-17 18l25 20l36 168h-170l-12 -54l-46 54h-296l-272 -206l-36 -168l16 -18l-24 -20l-36 -168h169l12 53l47 -53h296zM34 -13h-6l41 190l14 12l-9 12l38 182l282 214h310l29 -34
l7 34h200l-1 -6l21 -27l-40 -186l-15 -13l10 -12l-38 -181l-280 -212h-308l-24 27h-1l-8 9l-8 -36h-193z" />
    <glyph glyph-name="FL00D9h" unicode="&#xd9;" 
d="M508 633h152l-33 168h-167zM500 618h-5l-55 198h201l1 -10l1 1l19 -23l37 -193h-177zM259 2h539l124 581h-168l-87 -411h-307l-87 109l64 302h-167l-80 -374zM939 592l21 -27l-129 -605h-557l-22 27h-3l-175 215l84 396h197l-1 -6l21 -27l-65 -304l60 -74h285l87 411h198
z" />
    <glyph glyph-name="FL00DAh" unicode="&#xda;" 
d="M455 633h152l118 168h-167zM752 816l-4 -7l22 -26l-134 -192h-177l-22 27h-8l122 198h201zM259 2h539l124 581h-168l-87 -411h-307l-87 109l64 302h-167l-80 -374zM939 592l21 -27l-129 -605h-557l-22 27h-3l-175 215l84 396h197l-1 -6l21 -27l-65 -304l60 -74h285
l87 411h198z" />
    <glyph glyph-name="FL00DBh" unicode="&#xdb;" 
d="M577 718l16 -85h166l-44 168h-244l-115 -168h167zM355 596l-1 -4l21 -27l-65 -304l60 -74h285l86 404h-135l-22 27h-5l-3 13l-23 -40h-194zM259 2h539l124 581h-168l-87 -411h-307l-87 109l64 302h-167l-80 -374zM939 592l21 -27l-129 -605h-557l-22 27h-3l-175 215
l84 396h195l-16 20h-7l135 198h263l2 -11v1l19 -22l47 -186h144z" />
    <glyph glyph-name="FL00DCh" unicode="&#xdc;" 
d="M592 633h168l35 168h-168zM356 633h169l35 168h-169zM343 618h-6l42 198h199l-1 -6l21 -27l-40 -192h-193zM259 2h539l124 581h-168l-87 -411h-307l-87 109l64 302h-167l-80 -374zM939 592l21 -27l-129 -605h-557l-22 27h-3l-175 215l84 396h197l-1 -6l21 -27l-65 -304
l60 -74h285l86 404h-140l-22 27h-6l42 198h198l-1 -6l21 -27l-39 -185h146z" />
    <glyph glyph-name="FL00DDh" unicode="&#xdd;" horiz-adv-x="866" 
d="M455 633h152l118 168h-167zM752 816l-4 -7l22 -26l-134 -192h-177l-22 27h-8l122 198h201zM303 208h296l-43 -36h-473l-37 -170h537l257 206l80 375h-168l-44 -206h-305l-86 110l20 96h-167l-36 -169zM71 187h230l-5 6h-3l-175 214l40 191h197l-1 -6l21 -27l-21 -98
l59 -75h283l44 206h198l-1 -6l21 -27l-83 -393l-266 -212h-554l-21 27h-6z" />
    <glyph glyph-name="FL00DEh" unicode="&#xde;" horiz-adv-x="869" 
d="M695 478h-378l22 104h-169l-124 -580h169l66 308h312l28 -37h-311l-36 -168h547l36 168zM362 493h343l169 -213l-1 -4l21 -27l-40 -186h-571l-10 13l-25 -116h-193l-21 27h-6l130 610h199l-1 -6l21 -27z" />
    <glyph glyph-name="FL00DFh" unicode="&#xdf;" horiz-adv-x="869" 
d="M717 582h-547l-124 -580h169l88 413h312l28 -37h-311l-36 -169h377l-8 -38h-377l-36 -169h547l80 376zM896 385l-1 -4l21 -27l-84 -394h-571l-10 13l-3 -13h-193l-21 27h-6l130 610h569z" />
    <glyph glyph-name="FL00E0h" unicode="&#xe0;" 
d="M371 316h292l-43 55h-182zM508 633h152l-33 168h-167zM709 583h-326l-257 -207l-80 -374h167l64 301l134 110h198l87 -112h-379l-36 -168h377l-28 -131h168l80 374zM516 598l-16 20h-5l-55 198h201l1 -10l1 1l19 -23l35 -186h22l175 -215v-4l21 -27l-84 -392h-192l-21 27
h-6l22 104h-344l-12 16l-32 -147h-191l-21 27h-6l84 396l267 215h137z" />
    <glyph glyph-name="FL00E1h" unicode="&#xe1;" 
d="M371 316h292l-43 55h-182zM455 633h152l118 168h-167zM709 583h-326l-257 -207l-80 -374h167l64 301l134 110h198l87 -112h-379l-36 -168h377l-28 -131h168l80 374zM752 816l-4 -7l22 -26l-131 -185h80l175 -215v-4l21 -27l-84 -392h-192l-21 27h-6l22 104h-344l-12 16
l-32 -147h-191l-21 27h-6l84 396l267 215h74l-16 20h-8l122 198h201z" />
    <glyph glyph-name="FL00E2h" unicode="&#xe2;" 
d="M576 631l-20 -33h44l-16 20h-5zM371 316h292l-43 55h-182zM577 718l16 -85h166l-44 168h-244l-115 -168h167zM709 583h-326l-257 -207l-80 -374h167l64 301l134 110h198l87 -112h-379l-36 -168h377l-28 -131h168l80 374zM337 618h-7l135 198h263l2 -11v1l19 -22l50 -193
h-74l169 -208v-4l21 -27l-84 -392h-192l-21 27h-6l22 104h-344l-12 16l-32 -147h-191l-21 27h-6l84 396l259 208h-12z" />
    <glyph glyph-name="FL00E3h" unicode="&#xe3;" 
d="M513 632l-20 -34h45l-16 20h-4zM371 316h292l-43 55h-182zM511 714l19 -81h212l115 168h-166l-51 -82l-19 82h-213l-114 -168h166zM709 583h-326l-257 -207l-80 -374h167l64 301l134 110h198l87 -112h-379l-36 -168h377l-28 -131h168l80 374zM884 816l-4 -7l22 -26
l-131 -192h-46l169 -208v-4l21 -27l-84 -392h-192l-21 27h-6l22 104h-344l-12 16l-32 -147h-191l-21 27h-6l84 396l259 208h-74l-22 27h-8l135 198h232l2 -10l1 1l18 -23l2 -13l28 45h199z" />
    <glyph glyph-name="FL00E4h" unicode="&#xe4;" 
d="M371 316h292l-43 55h-182zM592 633h168l35 168h-168zM356 633h169l35 168h-169zM709 583h-326l-257 -207l-80 -374h167l64 301l134 110h198l87 -112h-379l-36 -168h377l-28 -131h168l80 374zM343 618h-6l42 198h199l-1 -6l21 -27l-39 -185h36l-16 20h-6l42 198h198l-1 -6
l21 -27l-40 -192h-68l169 -208v-4l21 -27l-84 -392h-192l-21 27h-6l22 104h-344l-12 16l-32 -147h-191l-21 27h-6l84 396l259 208h-6z" />
    <glyph glyph-name="FL00E5h" unicode="&#xe5;" 
d="M495 816l-42 -198h6l16 -20h-96l-267 -215l-84 -396h6l21 -27h191l32 147l12 -16h344l-22 -104h6l21 -27h192l84 392l-21 27v4l-175 215h-44l39 185l-21 27l1 6h-199zM658 133h-377l36 168h379l-87 112h-198l-134 -110l-64 -301h-167l80 374l257 207h326l169 -207
l-80 -374h-168zM507 801h169l-35 -168h-169zM438 371h182l43 -55h-292zM598 687l13 59h-60l-13 -59h60zM584 704h3l-1 -2h-3z" />
    <glyph glyph-name="FL00E6h" unicode="&#xe6;" horiz-adv-x="1567" 
d="M904 295l-2 -6l4 3zM928 292l-81 -67l28 133zM372 316h291l-43 55h-181zM1334 207l36 170h-274l-28 37h517l36 168h-754l-33 -152l-125 152h-325l-258 -206l-80 -374h168l64 301l134 110h197l88 -112h-379l-36 -168h377l-28 -131h866l36 168h-517l44 37h274zM34 -13h-6
l84 396l268 214h339l108 -131l28 131h784l-1 -6l21 -27l-41 -192h-220l10 -13l-37 -174h180l-1 -6l22 -26l-42 -193h-890l-21 27h-6l22 104h-344l-12 16l-32 -147h-192z" />
    <glyph glyph-name="FL00E7h" unicode="&#xe7;" horiz-adv-x="869" 
d="M314 -166h65l208 168h212l36 169h-586l28 132l134 110h476l36 170h-540l-257 -207l-80 -374h303zM312 267l-17 -81h559l-2 -6l22 -27l-42 -193h-219l-207 -167h-83l-21 26h-6l29 141h-270l-21 27h-6l84 396l267 215h562l-1 -6l21 -27l-41 -194h-482z" />
    <glyph glyph-name="FL00E8h" unicode="&#xe8;" horiz-adv-x="869" 
d="M508 633h152l-33 168h-167zM362 208h275l36 169h-275l-28 37h517l36 169h-753l-36 -169l97 -122l-149 -121l-36 -169h753l36 169h-517zM34 -13h-6l41 191l140 114l-91 115l40 191h358l-16 20h-5l-55 198h201l1 -10l1 1l19 -23l35 -186h244l-1 -6l21 -27l-41 -193h-220
l10 -13l-36 -173h180l-2 -6l22 -27l-42 -193h-777z" />
    <glyph glyph-name="FL00E9h" unicode="&#xe9;" horiz-adv-x="869" 
d="M455 633h152l118 168h-167zM362 208h275l36 169h-275l-28 37h517l36 169h-753l-36 -169l97 -122l-149 -121l-36 -169h753l36 169h-517zM752 816l-4 -7l22 -26l-131 -185h302l-1 -6l21 -27l-41 -193h-220l10 -13l-36 -173h180l-2 -6l22 -27l-42 -193h-777l-21 27h-6
l41 191l140 114l-91 115l40 191h295l-16 20h-8l122 198h201z" />
    <glyph glyph-name="FL00EAh" unicode="&#xea;" horiz-adv-x="869" 
d="M576 631l-20 -33h44l-16 20h-5zM577 718l16 -85h166l-44 168h-244l-115 -168h167zM362 208h275l36 169h-275l-28 37h517l36 169h-753l-36 -169l97 -122l-149 -121l-36 -169h753l36 169h-517zM34 -13h-6l41 191l140 114l-91 115l40 191h195l-16 20h-7l135 198h263l2 -11v1
l19 -22l47 -186h145l-1 -6l21 -27l-41 -193h-220l10 -13l-36 -173h180l-2 -6l22 -27l-42 -193h-777z" />
    <glyph glyph-name="FL00EBh" unicode="&#xeb;" horiz-adv-x="869" 
d="M592 633h168l35 168h-168zM356 633h169l35 168h-169zM362 208h275l36 169h-275l-28 37h517l36 169h-753l-36 -169l97 -122l-149 -121l-36 -169h753l36 169h-517zM34 -13h-6l41 191l140 114l-91 115l40 191h201l-16 20h-6l42 198h199l-1 -6l21 -27l-39 -185h36l-16 20h-6
l42 198h198l-1 -6l21 -27l-39 -185h147l-1 -6l21 -27l-41 -193h-220l10 -13l-36 -173h180l-2 -6l22 -27l-42 -193h-777z" />
    <glyph glyph-name="FL00ECh" unicode="&#xec;" horiz-adv-x="284" 
d="M230 633h151l-32 168h-166zM46 2h169l124 581h-169zM34 -13h-6l130 611h80l-16 20h-5l-54 198h200l1 -10l1 1l19 -23l36 -193h-64l20 -26l-129 -605h-192z" />
    <glyph glyph-name="FL00EDh" unicode="&#xed;" horiz-adv-x="284" 
d="M148 633h151l117 168h-166zM46 2h169l124 581h-169zM443 816l-4 -7l22 -26l-130 -185h25l-1 -6l21 -27l-129 -605h-192l-21 27h-6l129 604h-5l-22 27h-8l122 198h199z" />
    <glyph glyph-name="FL00EEh" unicode="&#xee;" horiz-adv-x="285" 
d="M283 631l-20 -33h44l-16 20h-5zM284 718l16 -85h167l-45 168h-243l-114 -168h166zM46 2h169l124 581h-169zM45 618h-8l136 198h262l2 -11v1l19 -22l50 -193h-149l20 -26l-129 -605h-193l-21 27h-6l129 604h-90z" />
    <glyph glyph-name="FL00EFh" unicode="&#xef;" horiz-adv-x="285" 
d="M299 633h169l35 168h-169zM64 633h169l35 168h-169zM46 2h169l124 581h-169zM266 598h36l-16 20h-6l42 198h198l-1 -6l21 -27l-40 -192h-143l20 -26l-129 -605h-193l-21 27h-6l129 604h-84l-22 27h-6l42 198h199l-1 -6l20 -27z" />
    <glyph glyph-name="FL00F0h" unicode="&#xf0;" horiz-adv-x="869" 
d="M143 371h161l-235 -194l-41 -190h6l21 -27h777l84 392l-21 27v4l-175 214h-562l-42 -199h6zM332 376h307l-29 37h-476l36 169h540l169 -206l-80 -374h-753l36 168zM318 170h349l8 37h-313z" />
    <glyph glyph-name="FL00F1h" unicode="&#xf1;" 
d="M488 632l-20 -34h45l-16 20h-4zM486 714l19 -81h213l114 168h-166l-51 -82l-19 82h-213l-114 -168h166zM709 583h-539l-124 -581h167l88 411h308l85 -110l-64 -301h168l80 374zM859 816l-4 -7l22 -26l-131 -192h-21l169 -208v-4l21 -27l-84 -392h-192l-21 27h-6l66 309
l-58 75h-286l-88 -411h-191l-21 27h-6l130 611h108l-16 20h-8l135 198h232l2 -10l1 1l18 -23l2 -13l28 45h199z" />
    <glyph glyph-name="FL00F2h" unicode="&#xf2;" horiz-adv-x="870" 
d="M508 633h152l-33 168h-167zM312 267l-17 -81h362l23 110l-58 75h-184zM696 303l-28 -132h-419l28 132l134 110h200zM126 376l-80 -374h754l80 374l-169 207h-328zM896 379l21 -27l-84 -392h-778l-21 27h-6l84 396l267 215h137l-16 20h-5l-55 198h201l1 -10l1 1l19 -23
l35 -186h24l175 -215v-4z" />
    <glyph glyph-name="FL00F3h" unicode="&#xf3;" horiz-adv-x="870" 
d="M455 633h152l118 168h-167zM312 267l-17 -81h362l23 110l-58 75h-184zM696 303l-28 -132h-419l28 132l134 110h200zM126 376l-80 -374h754l80 374l-169 207h-328zM896 379l21 -27l-84 -392h-778l-21 27h-6l84 396l267 215h74l-16 20h-8l122 198h201l-4 -7l22 -26
l-131 -185h82l175 -215v-4z" />
    <glyph glyph-name="FL00F4h" unicode="&#xf4;" horiz-adv-x="870" 
d="M576 631l-20 -33h44l-16 20h-5zM577 718l16 -85h166l-44 168h-244l-115 -168h167zM312 267l-17 -81h362l23 110l-58 75h-184zM696 303l-28 -132h-419l28 132l134 110h200zM126 376l-80 -374h754l80 374l-169 207h-328zM896 379l21 -27l-84 -392h-778l-21 27h-6l84 396
l259 208h-12l-22 27h-7l135 198h263l2 -11v1l19 -22l50 -193h-72l169 -208v-4z" />
    <glyph glyph-name="FL00F5h" unicode="&#xf5;" horiz-adv-x="870" 
d="M513 632l-20 -34h45l-16 20h-4zM312 267l-17 -81h362l23 110l-58 75h-184zM511 714l19 -81h213l114 168h-166l-51 -82l-19 82h-213l-114 -168h166zM696 303l-28 -132h-419l28 132l134 110h200zM126 376l-80 -374h754l80 374l-169 207h-328zM896 379l21 -27l-84 -392h-778
l-21 27h-6l84 396l259 208h-74l-22 27h-8l135 198h232l2 -10l1 1l18 -23l2 -13l28 45h199l-4 -7l22 -26l-131 -192h-44l169 -208v-4z" />
    <glyph glyph-name="FL00F7h" unicode="&#xf6;" horiz-adv-x="870" 
d="M592 633h168l35 168h-168zM356 633h169l35 168h-169zM312 267l-17 -81h362l23 110l-58 75h-184zM696 303l-28 -132h-419l28 132l134 110h200zM126 376l-80 -374h754l80 374l-169 207h-328zM896 379l21 -27l-84 -392h-778l-21 27h-6l84 396l259 208h-6l-22 27h-6l42 198
h199l-1 -6l21 -27l-39 -185h36l-16 20h-6l42 198h198l-1 -6l21 -27l-40 -192h-66l169 -208v-4z" />
    <glyph glyph-name="FL0100h" unicode="&#xf7;" horiz-adv-x="668" 
d="M325 414h169l36 168h-169zM237 2h169l36 168h-169zM90 207h552l36 170h-552zM114 392h204l-5 7h-6l42 198h199l-1 -6l21 -27l-37 -172h165l-1 -6l21 -27l-41 -194h-205l11 -12l-42 -193h-193l-21 27h-6l38 178h-158l-21 27h-6z" />
    <glyph glyph-name="FL00F8h" unicode="&#xf8;" 
d="M375 377l46 36h178l30 -36h-254zM593 207l-46 -36h-178l-30 36h254zM842 208l36 168l-184 206h-296l-272 -206l-36 -168l184 -206h296zM265 -13h-1l-190 214l38 182l282 214h310l190 -214v-4l21 -27l-38 -180l-280 -212h-308z" />
    <glyph glyph-name="FL00F9h" unicode="&#xf9;" 
d="M508 633h152l-33 168h-167zM500 618h-5l-55 198h201l1 -10l1 1l19 -23l37 -193h-177zM259 2h539l124 581h-168l-87 -411h-307l-87 109l64 302h-167l-80 -374zM939 592l21 -27l-129 -605h-557l-22 27h-3l-175 215l84 396h197l-1 -6l21 -27l-65 -304l60 -74h285l87 411h198
z" />
    <glyph glyph-name="FL00FAh" unicode="&#xfa;" 
d="M455 633h152l118 168h-167zM752 816l-4 -7l22 -26l-134 -192h-177l-22 27h-8l122 198h201zM259 2h539l124 581h-168l-87 -411h-307l-87 109l64 302h-167l-80 -374zM939 592l21 -27l-129 -605h-557l-22 27h-3l-175 215l84 396h197l-1 -6l21 -27l-65 -304l60 -74h285
l87 411h198z" />
    <glyph glyph-name="FL00FBh" unicode="&#xfb;" 
d="M577 718l16 -85h166l-44 168h-244l-115 -168h167zM355 596l-1 -4l21 -27l-65 -304l60 -74h285l86 404h-135l-22 27h-5l-3 13l-23 -40h-194zM259 2h539l124 581h-168l-87 -411h-307l-87 109l64 302h-167l-80 -374zM939 592l21 -27l-129 -605h-557l-22 27h-3l-175 215
l84 396h195l-16 20h-7l135 198h263l2 -11v1l19 -22l47 -186h144z" />
    <glyph glyph-name="FL00FCh" unicode="&#xfc;" 
d="M592 633h168l35 168h-168zM356 633h169l35 168h-169zM343 618h-6l42 198h199l-1 -6l21 -27l-40 -192h-193zM259 2h539l124 581h-168l-87 -411h-307l-87 109l64 302h-167l-80 -374zM939 592l21 -27l-129 -605h-557l-22 27h-3l-175 215l84 396h197l-1 -6l21 -27l-65 -304
l60 -74h285l86 404h-140l-22 27h-6l42 198h198l-1 -6l21 -27l-39 -185h146z" />
    <glyph glyph-name="FL00FDh" unicode="&#xfd;" 
d="M455 633h152l118 168h-167zM752 816l-4 -7l22 -26l-134 -192h-177l-22 27h-8l122 198h201zM317 478l22 105h-169l-36 -169l166 -206h82l-44 -206h170l44 206h80l254 206l36 169h-170l-22 -105l-124 -101h-208zM356 592l21 -27l-23 -107l54 -66h194l114 93l24 113h200
l-1 -6l21 -27l-40 -187l-262 -212h-73l-44 -206h-194l-21 27h-6l38 179h-43l-22 27h-3l-172 214l40 191h199z" />
    <glyph glyph-name="FL00FEh" unicode="&#xfe;" horiz-adv-x="869" 
d="M865 311l36 168h-584l22 103h-169l-124 -580h169l66 309h348l-44 -37h-275l-35 -168h341zM158 597h199l-1 -6l21 -27l-15 -70h557l-1 -6l21 -26l-40 -187l-257 -211h-358l-11 13l-25 -117h-193l-21 27h-6z" />
    <glyph glyph-name="FL00FFh" unicode="&#xff;" 
d="M356 633h169l35 168h-169zM592 633h168l35 168h-168zM343 618h-6l42 198h199l-1 -6l21 -27l-40 -192h-193zM317 478l22 105h-169l-36 -169l166 -206h82l-44 -206h170l44 206h80l254 206l36 169h-170l-22 -105l-124 -101h-208zM356 592l21 -27l-23 -107l54 -66h194l114 93
l23 106h-138l-22 27h-6l42 198h198l-1 -6l21 -27l-39 -185h146l-1 -6l21 -27l-40 -187l-262 -212h-73l-44 -206h-194l-21 27h-6l38 179h-43l-22 27h-3l-172 214l40 191h199z" />
    <glyph glyph-name="FL0152h" unicode="&#x152;" horiz-adv-x="1395" 
d="M275 -40h1083l42 193l-22 26l1 6h-180l37 174l-10 13h220l41 192l-21 27l1 6h-1309l-84 -396l176 -214h3zM844 170h517l-36 -168h-1065l-170 206l80 374h1279l-36 -168h-517l28 -37h274l-36 -170h-274zM659 414h-357l-28 -133l86 -110h248l148 121zM311 261l24 111h335
l64 -80l-129 -106h-234z" />
    <glyph glyph-name="FL0153h" unicode="&#x153;" horiz-adv-x="1395" 
d="M313 267l-18 -82h308l131 107l-63 79h-233zM607 170h-357l28 133l134 110h248l96 -121zM888 207h274l36 170h-274l-28 37h517l36 168h-1065l-258 -206l-80 -374h1279l36 168h-517zM34 -13h-6l84 396l268 214h1087l-1 -6l21 -27l-41 -192h-220l10 -13l-37 -174h180l-1 -6
l22 -26l-42 -193h-1303z" />
    <glyph glyph-name="FL0160h" unicode="&#x160;" horiz-adv-x="870" 
d="M373 816l51 -198h5l16 -20h-73l-259 -213l-41 -191h6l7 -8h-14l-43 -199h6l21 -27h778l40 187l-21 27l1 4l-155 195h222l41 192l-21 27l1 6h-228l127 185l-22 26l4 7h-200l-27 -44l-1 11l-19 24l-1 -1l-1 10h-200zM572 209h-482l36 169l250 205h547l-36 -168h-481
l-44 -37h311l163 -207l-36 -169h-754l36 169h518zM577 715l52 86h166l-114 -168h-244l-45 168h167z" />
    <glyph glyph-name="FL0161h" unicode="&#x161;" horiz-adv-x="870" 
d="M372 816l51 -198h5l16 -20h-286l-40 -191l169 -214h4l6 -7h-226l-43 -199h6l21 -27h778l40 187l-21 27l1 4l-158 194h226l41 193l-21 27l1 6h-230l127 185l-22 26l4 7h-200l-27 -44l-1 11l-19 24l-1 -1l-1 10h-200zM398 377h272l166 -206l-36 -169h-754l36 169h518
l-28 37h-275l-163 206l36 169h754l-36 -169h-518zM576 715l52 86h166l-114 -168h-244l-45 168h167z" />
    <glyph glyph-name="FL0178h" unicode="&#x178;" horiz-adv-x="866" 
d="M355 633h169l35 168h-169zM591 633h168l35 168h-168zM342 618h-6l42 198h199l-1 -6l21 -27l-40 -192h-193zM303 208h296l-43 -36h-473l-37 -170h537l257 206l80 375h-168l-44 -206h-305l-86 110l20 96h-167l-36 -169zM71 187h230l-5 6h-3l-175 214l40 191h197l-1 -6
l21 -27l-21 -98l59 -75h283l43 199h-139l-22 27h-6l42 198h198l-1 -6l21 -27l-39 -185h145l-1 -6l21 -27l-83 -393l-266 -212h-554l-21 27h-6z" />
    <glyph glyph-name="FL017Dh" unicode="&#x17d;" horiz-adv-x="869" 
d="M558 801h-167l45 -168h244l114 168h-166l-52 -86zM608 376h-482l-36 -169l162 -205h547l36 168h-481l-28 37h311l251 207l36 169h-754l-36 -169h518zM114 391h14l-6 8h-6l42 199h286l-16 20h-5l-51 198h200l1 -10l1 1l19 -24l1 -11l27 44h200l-4 -7l22 -26l-127 -185h230
l-1 -6l21 -27l-40 -187l-235 -193h166l-1 -6l21 -27l-41 -192h-565l-22 27h-3l-168 213z" />
    <glyph glyph-name="FL017Eh" unicode="&#x17e;" horiz-adv-x="870" 
d="M557 801h-167l45 -168h244l114 168h-166l-53 -86zM608 377h-272l-254 -206l-36 -169h754l36 169h-518l44 37h275l251 206l36 169h-754l-36 -169h518zM307 372h-164l-21 27h-6l42 199h285l-16 20h-5l-51 198h200l1 -10l1 1l19 -24l1 -10l27 43h200l-4 -7l22 -26l-127 -185
h231l-1 -6l21 -27l-40 -187l-234 -192h167l-2 -6l22 -27l-42 -193h-778l-21 27h-6l41 191z" />
    <glyph glyph-name="FL00A4h" unicode="&#x192;" horiz-adv-x="870" 
d="M692 299h172l38 180l-91 103h-641l-36 -168h170l-44 -206l170 -206h199l36 169h-135l-86 110l28 133h244zM692 372h-187l-24 -111l60 -75h143l-2 -6l22 -26l-42 -194h-217l-22 27h-3l-175 214l36 171h-138l-21 27h-6l42 198h663l97 -111l-1 -4l22 -26l-42 -199h-196
l-22 27h-6z" />
    <glyph glyph-name="FL02C6h" unicode="&#x2c6;" horiz-adv-x="519" 
d="M390 667l16 -85h166l-45 167h-243l-114 -167h166zM152 567h-8l135 197h261l2 -11v1l19 -22l51 -192h-193l-21 27h-5l-4 13l-23 -40h-193z" />
    <glyph glyph-name="FL02DCh" unicode="&#x2dc;" horiz-adv-x="645" 
d="M387 662l18 -81h212l116 167h-166l-51 -81l-19 81h-212l-116 -167h166zM760 763l-4 -7l22 -26l-131 -191h-227l-22 27h-4l-5 14l-23 -41h-193l-22 27h-8l136 197h231l2 -10v1l18 -23l3 -12l28 44h199z" />
    <glyph glyph-name="FL2013h" unicode="&#x2013;" horiz-adv-x="493" 
d="M90 206h377l36 169h-377zM520 384l21 -27l-41 -192h-401l-21 26h-6l42 199h407z" />
    <glyph glyph-name="FL2014h" unicode="&#x2014;" horiz-adv-x="632" 
d="M90 206h516l36 169h-516zM114 390h546l-1 -6l21 -27l-41 -192h-540l-21 26h-6z" />
    <glyph glyph-name="FL2018h" unicode="&#x2018;" horiz-adv-x="283" 
d="M139 509l-40 -190h6l20 -27h192l57 269l-21 27l1 6h-94zM264 579h72l-52 -245h-167l35 167z" />
    <glyph glyph-name="FL2019h" unicode="&#x2019;" horiz-adv-x="283" 
d="M125 293h91l119 84l39 185l-21 27l1 6h-197l-58 -275h6zM189 335h-72l52 245h167l-35 -167z" />
    <glyph glyph-name="FL201Ah" unicode="&#x201a;" horiz-adv-x="283" 
d="M38 -117h92l118 83l39 186l-21 27l1 6h-197l-58 -275h6zM103 -76h-73l52 246h167l-35 -167z" />
    <glyph glyph-name="FL201Ch" unicode="&#x201c;" horiz-adv-x="500" 
d="M139 509l-40 -190h6l21 -27h192l5 24l19 -24h192l57 269l-21 27l1 6h-95l-110 -78l9 45l-21 27l1 6h-95zM480 579h73l-52 -245h-168l35 167zM264 579h73l-52 -245h-168l35 167z" />
    <glyph glyph-name="FL201Dh" unicode="&#x201d;" horiz-adv-x="500" 
d="M126 293h90l109 75l-10 -48h6l21 -27h90l120 84l39 185l-21 27l1 6h-198l-5 -24l-14 18l1 6h-198l-58 -275h6zM189 335h-72l52 245h168l-35 -167zM405 335h-72l52 245h168l-35 -167z" />
    <glyph glyph-name="FL201Eh" unicode="&#x201e;" horiz-adv-x="498" 
d="M39 -117h91l106 75l-10 -48h6l21 -27h91l119 83l39 186l-21 27l1 6h-198l-4 -22l-13 16l1 6h-198l-58 -275h6zM103 -76h-73l52 246h168l-35 -167zM317 -76h-73l52 246h168l-35 -167z" />
    <glyph glyph-name="FL2020h" unicode="&#x2020;" horiz-adv-x="602" 
d="M598 310l36 169h-158l22 103h-170l-22 -103h-158l-36 -169h158l-66 -308h170l66 308h158zM520 494h132l-1 -6l21 -26l-41 -194h-159l-66 -308h-193l-21 27h-6l60 281h-125l-21 27h-6l42 199h158l22 103h200l-1 -6l20 -27z" />
    <glyph glyph-name="FL2021h" unicode="&#x2021;" horiz-adv-x="602" 
d="M396 104h158l36 169h-158l8 37h158l36 169h-158l22 103h-170l-22 -103h-158l-36 -169h158l-8 -37h-158l-36 -169h158l-22 -102h170zM520 494h132l-1 -6l21 -26l-41 -194h-13l10 -13l-41 -193h-159l-22 -102h-193l-21 27h-6l16 75h-125l-21 27h-6l42 199h13l-5 7h-6
l42 199h158l22 103h200l-1 -6l20 -27z" />
    <glyph glyph-name="FL2022h" unicode="&#x2022;" horiz-adv-x="870" 
d="M158 597l-40 -190l91 -115l-140 -115l-41 -190h6l21 -27h778l40 187l-21 26l1 4l-70 87l139 114l40 186l-21 27l1 6h-784zM888 414l-149 -122l97 -122l-36 -168h-754l36 168l149 122l-97 122l36 168h754z" />
    <glyph glyph-name="FL2026h" unicode="&#x2026;" horiz-adv-x="756" 
d="M518 2h168l36 167h-168zM281 2h169l36 167h-169zM46 2h168l36 167h-168zM34 -13h-6l42 197h198l-1 -6l21 -26l-41 -192h-192zM269 -13h-6l42 197h199l-1 -6l21 -26l-41 -192h-193zM506 -13h-6l42 197h198l-1 -6l21 -26l-41 -192h-193z" />
    <glyph glyph-name="FL2030h" unicode="&#x2030;" horiz-adv-x="1275" 
d="M680 0l1 2l5 -5l-2 -2zM354 536h10l7 6h-9zM620 15h10l7 6h-9zM1026 15h10l7 6h-9zM1053 63l24 -29l-1 -6l-36 -28h-46l-24 28l1 6l36 29h46zM381 584l24 -29l-1 -6l-36 -28h-46l-24 28l1 6l36 29h46zM647 63l24 -29l-1 -6l-36 -28h-46l-24 28l1 6l36 29h46zM721 176
h-147l-136 -104l-17 -83l92 -103h147l137 103l17 83zM1203 -11l17 83l-93 104h-147l-135 -104l-17 -83l91 -103h147zM529 510l18 83l-93 103h-146l-136 -103l-18 -83l93 -103h146zM334 377l-252 -206l-36 -169h170l23 105l123 101h263l262 206l36 169h-170l-22 -105
l-125 -101h-272zM563 596l21 -27l-20 -95l-110 -82h148l115 93l24 113h200l-1 -6l21 -27l-40 -187l-237 -187h48l99 -112l-1 -4l1 -1l1 5l145 112h161l99 -112l-1 -4l21 -27l-20 -95l-144 -109h-159l-24 27h-1l-77 87l-1 -5l-144 -109h-159l-24 27h-1l-99 111l21 97l113 87
h-149l-116 -95l-24 -111h-194l-21 27h-6l41 191l229 187h-36l-25 27h-1l-98 111l21 97l145 111h160l100 -111z" />
    <glyph glyph-name="FL2039h" unicode="&#x2039;" horiz-adv-x="283" 
d="M82 168l150 -79l35 166l-77 36l92 34l35 166l-184 -80zM283 261l22 -27l-41 -193l-174 91l-17 22h1l-9 6l55 261l217 94l-1 -8l21 -27l-41 -193l-44 -16l13 -5z" />
    <glyph glyph-name="FL203Ah" unicode="&#x203a;" horiz-adv-x="283" 
d="M45 66l5 2l22 -27l211 90l55 258l-22 27l1 5l-177 94l-42 -200l8 -4h-1l18 -23l9 -5l-44 -17zM193 291l-78 34l35 166l150 -80l-51 -243l-184 -79l35 166z" />
    <glyph glyph-name="FL20ACh" unicode="&#x20ac;" horiz-adv-x="978" 
d="M148 479l-36 -169h134l-8 -37h-134l-36 -169h134l-22 -102h728l36 168h-329l22 103h-232l6 30l9 7h225l22 103h329l36 169h-515l-129 -103h-240zM136 494h248l129 103h537l-1 -6l21 -27l-41 -193h-329l-22 -103h-13l10 -13l-15 -70h302l-1 -6l22 -26l-42 -193h-752
l-21 27h-6l16 75h-101l-21 27h-6l42 199h13l-5 7h-6z" />
    <glyph glyph-name="FL0074h" unicode="&#x2122;" horiz-adv-x="870" 
d="M596 414h292l36 168h-754l-36 -168h292l-88 -412h170zM122 399h-6l42 198h784l-1 -6l21 -27l-41 -192h-292l-88 -412h-194l-21 27h-6l82 385h-259z" />
    </font>
</defs>
</svg>
